<?xml version="1.0" encoding="utf-8"?>
<!-- Generator: Adobe Illustrator 16.0.0, SVG Export Plug-In . SVG Version: 6.00 Build 0)  -->
<!DOCTYPE svg PUBLIC "-//W3C//DTD SVG 1.1//EN" "http://www.w3.org/Graphics/SVG/1.1/DTD/svg11.dtd">
<svg version="1.1" id="Capa_1" xmlns="http://www.w3.org/2000/svg" xmlns:xlink="http://www.w3.org/1999/xlink" x="0px" y="0px"
	 width="800px" height="600px" viewBox="0 0 800 600" enable-background="new 0 0 800 600" xml:space="preserve">
<path fill="#FFFFFF" d="M444.836,127.979c6.689-0.194,12.243-4.072,13.462-10.355c1.217-6.283-2.414-14.783-8.888-19.5
	c-3.386-2.47-7.225-3.799-10.914-4.611c-16.293-3.589-31.301,2.671-37.1,15.471c-3.522,7.773-0.804,25.639,13.013,25.656
	c4.228,0.004,6.904-4.848,10.357-6.22C430.973,125.953,437.823,128.184,444.836,127.979z"/>
<path fill="#FF495C" d="M632.279,500.815c-6.52,1.199-12.492,5.801-14.623,12.08s0.107,13.975,5.674,17.572
	c2.911,1.885,6.434,2.594,9.891,2.822c15.263,1.02,30.768-7.32,38.326-20.613c4.592-8.072,4.654-24.992-8.745-22.922
	c-4.101,0.637-7.431,5.748-10.987,7.6C645.422,500.687,639.113,499.556,632.279,500.815z"/>
<path fill="#FFFFFF" d="M678.937,314.856c5.108-6.713,13.933-10.395,22.301-9.3c6.927,0.901,13.126,4.757,18.529,9.181
	c7.342,6.005,13.902,13.636,16.049,22.878c1.313,5.681,0.882,11.639-0.316,17.342c-3.528,16.82-33.225,54.407-50.026,29.383
	c-5.852-8.711-1.014-25.069-4.111-35.003C677.479,336.872,669.107,327.766,678.937,314.856z"/>
<path fill="#FFB700" d="M654.6,170.684c-9.5,1.943-18.102,8.846-21.037,18.09s0.563,20.435,8.807,25.536
	c4.314,2.67,9.486,3.606,14.547,3.843c22.352,1.048,44.785-11.599,55.455-31.258c6.48-11.938,6.084-36.686-13.455-33.268
	c-5.977,1.046-10.699,8.619-15.846,11.43C673.816,170.113,664.559,168.644,654.6,170.684z"/>
</svg>
