<?xml version="1.0" encoding="utf-8"?>
<!-- Generator: Adobe Illustrator 16.0.0, SVG Export Plug-In . SVG Version: 6.00 Build 0)  -->
<!DOCTYPE svg PUBLIC "-//W3C//DTD SVG 1.1//EN" "http://www.w3.org/Graphics/SVG/1.1/DTD/svg11.dtd">
<svg version="1.1" id="Capa_1" xmlns="http://www.w3.org/2000/svg" xmlns:xlink="http://www.w3.org/1999/xlink" x="0px" y="0px"
	 width="1280px" height="183px" viewBox="0 0 1280 183" enable-background="new 0 0 1280 183" xml:space="preserve">
<path fill="#76DDD8" d="M0,843h1280V98.669c0,0-262-156.256-654,0c-392,156.257-626,0-626,0V843z"/>
<path fill="#FF495C" d="M-226.669,391.273c-6.695,9.713-8.421,23.021-3.201,33.604c5.221,10.583,17.723,17.452,29.256,14.976
	c6.035-1.294,11.361-4.835,16-8.896c20.49-17.925,29.507-47.934,22.291-74.177c-4.381-15.938-25.596-37.311-39.852-17.84
	c-4.361,5.959-2.119,16.583-4.264,23.391C-210.292,374.57-219.653,381.088-226.669,391.273z"/>
<path fill="#FFB700" d="M-89.864,124.893c-9.845-6.502-23.185-7.964-33.663-2.535c-10.478,5.429-17.098,18.064-14.393,29.546
	c1.414,6.009,5.059,11.264,9.209,15.821c18.328,20.131,48.508,28.551,74.604,20.818c15.847-4.695,36.797-26.329,17.047-40.197
	c-6.044-4.242-16.62-1.79-23.469-3.8C-72.84,140.936-79.542,131.706-89.864,124.893z"/>
</svg>
