<?xml version="1.0" encoding="utf-8"?>
<!-- Generator: Adobe Illustrator 16.0.0, SVG Export Plug-In . SVG Version: 6.00 Build 0)  -->
<!DOCTYPE svg PUBLIC "-//W3C//DTD SVG 1.1//EN" "http://www.w3.org/Graphics/SVG/1.1/DTD/svg11.dtd">
<svg version="1.1" id="Capa_1" xmlns="http://www.w3.org/2000/svg" xmlns:xlink="http://www.w3.org/1999/xlink" x="0px" y="0px"
	 width="1980px" height="740.351px" viewBox="0 0 1980 740.351" enable-background="new 0 0 1980 740.351" xml:space="preserve">
<path fill="#FF495C" d="M-559.652,358.275c-6.695,9.713-8.421,23.021-3.201,33.604c5.221,10.583,17.723,17.452,29.256,14.977
	c6.035-1.295,11.361-4.836,16-8.896c20.49-17.925,29.507-47.934,22.291-74.177c-4.381-15.938-25.596-37.312-39.852-17.84
	c-4.361,5.959-2.119,16.583-4.264,23.391C-543.275,341.572-552.636,348.09-559.652,358.275z"/>
<path fill="#FFB700" d="M-422.847,91.895c-9.845-6.502-23.185-7.963-33.663-2.535c-10.478,5.43-17.098,18.064-14.393,29.547
	c1.414,6.009,5.059,11.264,9.209,15.82c18.328,20.131,48.508,28.551,74.604,20.818c15.847-4.695,36.797-26.329,17.047-40.197
	c-6.044-4.242-16.62-1.789-23.469-3.8C-405.823,107.938-412.525,98.708-422.847,91.895z"/>
<g>
	<path fill="#F4F4F4" d="M936.497,558.177c559.705-232.685,1044.226,135.099,1044.226,135.099l-1.59-692.94
		c0,0-462.357-16.785-1031.521,181.643C378.457,380.404,0-0.003,0-0.003v565.726C38.655,587.216,407.331,778.169,936.497,558.177z"
		/>
</g>
</svg>
