<?xml version="1.0" encoding="utf-8"?>
<!-- Generator: Adobe Illustrator 16.0.0, SVG Export Plug-In . SVG Version: 6.00 Build 0)  -->
<!DOCTYPE svg PUBLIC "-//W3C//DTD SVG 1.1//EN" "http://www.w3.org/Graphics/SVG/1.1/DTD/svg11.dtd">
<svg version="1.1" id="Capa_1" xmlns="http://www.w3.org/2000/svg" xmlns:xlink="http://www.w3.org/1999/xlink" x="0px" y="0px"
	 width="679px" height="500px" viewBox="-82.838 -44.5 679 500" enable-background="new -82.838 -44.5 679 500"
	 xml:space="preserve">
<path fill="#6CD0CD" d="M402.055,435c37.122-14.866,68.408-41.821,93.941-72.602c19.71-23.763,36.618-50.544,44.53-80.392
	c12.67-47.785-0.011-101.54-32.693-138.62c-8.815-9.995-19.187-18.966-31.547-23.942c-9.176-3.702-19.188-5.077-29.081-4.868
	c-34.272,0.741-66.229,20.577-87.572,47.41c-21.347,26.833-33.212,60.046-40.711,93.503c-5.644,25.177-9.475,51.92-24.872,72.621
	c-12.962,17.426-33.671,29.909-40.046,50.669C229.692,458.014,361.487,451.248,402.055,435z"/>
<path fill="#FFB700" d="M86.947-6.646C50.682,10.205,20.899,38.811-2.932,70.927c-18.399,24.797-33.834,52.452-40.12,82.685
	c-10.069,48.401,5.501,101.388,40.142,136.65c9.342,9.505,20.185,17.898,32.795,22.202c9.36,3.198,19.431,4.032,29.299,3.288
	c34.188-2.592,65.023-24.127,84.887-52.076c19.866-27.947,29.917-61.75,35.595-95.563c4.274-25.446,6.653-52.359,20.912-73.862
	c11.998-18.102,32.006-31.686,37.247-52.758C257.813-38.943,126.575-25.062,86.947-6.646z"/>
<path fill="#FF495C" d="M498.732,76.188c-8.531,1.157-17.562-2.555-22.813-9.386c-4.348-5.65-6.042-12.907-6.749-20.003
	c-0.964-9.636-0.193-19.879,4.931-28.1c3.151-5.051,7.767-9.04,12.746-12.291c14.692-9.596,63.26-15.292,57.324,14.901
	c-2.061,10.514-17.364,18.831-22.3,28.237C515.679,61.346,515.147,73.963,498.732,76.188z"/>
<path fill="#FFB700" d="M500.752,425.915c10.051,6.639,23.67,8.129,34.366,2.589c10.697-5.545,17.455-18.443,14.692-30.166
	c-1.443-6.136-5.163-11.499-9.399-16.153c-18.712-20.553-49.522-29.149-76.165-21.254c-16.177,4.796-37.566,26.88-17.403,41.04
	c6.169,4.331,16.967,1.826,23.957,3.88C483.369,409.537,490.215,418.96,500.752,425.915z"/>
<circle fill="#F2F2F2" cx="233.452" cy="206.311" r="227.137"/>
<path fill="#FF495C" d="M26.221,345.899c-3.049-6.636-9.581-11.765-16.864-12.339c-7.283-0.573-14.895,3.902-17.225,10.822
	c-1.223,3.62-1.027,7.574-0.334,11.329c3.051,16.572,16.158,30.868,32.404,35.334c9.863,2.715,27.949-1.804,22.103-15.552
	c-1.789-4.204-8.15-6.376-11.092-9.673C29.923,359.899,29.418,352.856,26.221,345.899z"/>
<g>
	<defs>
		<circle id="SVGID_1_" cx="233.452" cy="206.5" r="198"/>
	</defs>
	<clipPath id="SVGID_2_">
		<use xlink:href="#SVGID_1_"  overflow="visible"/>
	</clipPath>
	<g transform="matrix(1 0 0 1 -3.828609e-006 -4.254907e-007)" clip-path="url(#SVGID_2_)">
		
			<image overflow="visible" width="900" height="646" xlink:href="C:\Users\Carolina\Desktop\io.png"  transform="matrix(0.7039 0 0 0.7039 -46.0693 -21.0381)">
		</image>
	</g>
</g>
</svg>
