<?xml version="1.0" encoding="utf-8"?>
<!-- Generator: Adobe Illustrator 16.0.0, SVG Export Plug-In . SVG Version: 6.00 Build 0)  -->
<!DOCTYPE svg PUBLIC "-//W3C//DTD SVG 1.1//EN" "http://www.w3.org/Graphics/SVG/1.1/DTD/svg11.dtd">
<svg version="1.1" id="Capa_1" xmlns="http://www.w3.org/2000/svg" xmlns:xlink="http://www.w3.org/1999/xlink" x="0px" y="0px"
	 width="511.324px" height="400px" viewBox="74.479 58.264 511.324 400" enable-background="new 74.479 58.264 511.324 400"
	 xml:space="preserve">
<path fill="#6CD0CD" d="M451.189,443.968c30.583-12.247,56.358-34.454,77.395-59.813c16.237-19.578,30.168-41.642,36.686-66.231
	c10.438-39.369-0.009-83.654-26.935-114.204c-7.263-8.234-15.808-15.625-25.99-19.725c-7.559-3.049-15.808-4.182-23.958-4.01
	c-28.237,0.61-54.563,16.952-72.148,39.059c-17.587,22.106-27.362,49.469-33.54,77.032c-4.648,20.743-7.804,42.775-20.491,59.83
	c-10.679,14.358-27.74,24.641-32.992,41.744C309.187,462.928,417.768,457.354,451.189,443.968z"/>
<path fill="#FFB700" d="M191.586,80.114c-29.877,13.884-54.414,37.451-74.048,63.91c-15.158,20.429-27.875,43.213-33.053,68.12
	c-8.295,39.876,4.532,83.529,33.071,112.58c7.696,7.83,16.629,14.746,27.018,18.292c7.712,2.635,16.009,3.321,24.139,2.709
	c28.166-2.136,53.569-19.877,69.934-42.903c16.367-23.025,24.648-50.874,29.326-78.731c3.521-20.964,5.481-43.136,17.228-60.852
	c9.885-14.913,26.368-26.104,30.687-43.465C332.355,53.507,224.234,64.943,191.586,80.114z"/>
<path fill="#FF495C" d="M530.838,148.358c-7.029,0.953-14.468-2.105-18.795-7.733c-3.581-4.655-4.978-10.634-5.56-16.479
	c-0.794-7.939-0.159-16.378,4.063-23.151c2.596-4.161,6.398-7.447,10.501-10.126c12.103-7.905,52.116-12.598,47.226,12.277
	c-1.698,8.662-14.306,15.514-18.372,23.263C544.799,136.131,544.361,146.525,530.838,148.358z"/>
<path fill="#FFB700" d="M532.501,436.483c8.28,5.47,19.501,6.698,28.313,2.133c8.813-4.568,14.381-15.194,12.105-24.853
	c-1.189-5.054-4.255-9.473-7.744-13.308c-15.416-16.931-40.799-24.014-62.749-17.51c-13.327,3.951-30.949,22.146-14.338,33.812
	c5.083,3.568,13.979,1.504,19.738,3.196C518.181,422.99,523.82,430.753,532.501,436.483z"/>
<circle fill="#F2F2F2" cx="312.284" cy="255.561" r="187.128"/>
<path fill="#FF495C" d="M141.556,370.563c-2.512-5.467-7.893-9.694-13.893-10.167c-6-0.472-12.271,3.216-14.191,8.916
	c-1.008,2.984-0.846,6.241-0.275,9.334c2.513,13.653,13.312,25.431,26.696,29.11c8.126,2.237,23.026-1.487,18.21-12.813
	c-1.474-3.463-6.715-5.252-9.138-7.968C144.606,382.095,144.19,376.294,141.556,370.563z"/>
</svg>
