<?xml version="1.0" encoding="utf-8"?>
<!-- Generator: Adobe Illustrator 16.0.0, SVG Export Plug-In . SVG Version: 6.00 Build 0)  -->
<!DOCTYPE svg PUBLIC "-//W3C//DTD SVG 1.1//EN" "http://www.w3.org/Graphics/SVG/1.1/DTD/svg11.dtd">
<svg version="1.1" id="Capa_1" xmlns="http://www.w3.org/2000/svg" xmlns:xlink="http://www.w3.org/1999/xlink" x="0px" y="0px"
	 width="55px" height="55px" viewBox="2.5 2.5 55 55" enable-background="new 2.5 2.5 55 55" xml:space="preserve">
<g>
	<path fill="#1E1E1E" d="M29.265,16.89c-0.347-1.363-0.561-2.912-0.641-3.714h-0.187c-0.081,0.802-0.268,2.378-0.616,3.714
		l-0.935,3.662h3.314L29.265,16.89z"/>
	<path fill="#1E1E1E" d="M31.055,35.996H28.41v4.035h2.645c1.203,0,1.925-0.748,1.925-2.058
		C32.979,36.744,32.258,35.996,31.055,35.996z"/>
	<path fill="#1E252B" d="M19.591,23.518c-1.016,2.939-3.341,4.596-7.108,4.596c-4.784,0-7.482-2.806-7.482-7.322V15.66
		c0-4.517,2.698-7.322,7.482-7.322c3.768,0,6.04,1.683,7.055,4.596c0.267,0.749,0.08,1.149-0.642,1.39l-2.432,0.749
		c-0.774,0.24-1.042,0.106-1.31-0.696c-0.401-1.255-1.283-1.764-2.646-1.764c-1.898,0-2.752,0.935-2.752,3.02v5.184
		c0,2.085,0.829,3.019,2.752,3.019c1.336,0.026,2.218-0.534,2.619-1.764c0.267-0.829,0.587-0.989,1.336-0.748l2.458,0.802
		C19.672,22.368,19.859,22.769,19.591,23.518z M20.9,27.712c-0.749,0-0.909-0.375-0.668-1.068l5.639-16.995
		c0.241-0.75,0.562-0.91,1.282-0.91h2.859c0.695,0,1.069,0.188,1.283,0.856l5.665,17.049c0.241,0.694,0.028,1.068-0.722,1.068
		h-2.564c-1.256,0-1.631-0.241-1.845-1.042l-0.587-2.272h-5.452l-0.642,2.272c-0.213,0.802-0.562,1.042-1.764,1.042H20.9z
		 M37.388,50.693H34.77c-1.283,0-1.657-0.267-2.031-1.148l-1.684-3.901c-0.507-1.148-0.828-1.55-1.87-1.55H28.41v5.505
		c0,0.803-0.268,1.095-1.069,1.095h-2.619c-0.775,0-1.069-0.293-1.069-1.095V32.816c0-0.802,0.294-1.095,1.069-1.095h6.653
		c3.849,0,6.361,2.243,6.361,6.252c0,2.646-1.097,4.223-2.94,5.158c0.321,0.347,0.589,0.828,0.775,1.229l2.458,5.131
		C38.349,50.16,38.217,50.693,37.388,50.693z M39.586,25.313l1.202-1.39l-1.684-0.292c-0.563-0.081-0.695-0.321-0.535-0.803
		l0.319-0.989c0.161-0.48,0.455-0.614,0.909-0.347l1.523,0.829l-0.32-1.871c-0.08-0.48,0.107-0.721,0.589-0.721h0.961
		c0.587,0,0.721,0.24,0.641,0.721l-0.292,1.844l1.549-0.801c0.482-0.268,0.695-0.16,0.856,0.375l0.346,0.961
		c0.134,0.454,0.026,0.695-0.533,0.803l-1.711,0.32l1.229,1.362c0.32,0.348,0.348,0.642-0.054,0.935l-0.802,0.588
		c-0.428,0.321-0.723,0.267-0.937-0.214L42.097,25.1l-0.722,1.523c-0.215,0.482-0.562,0.562-0.936,0.294l-0.828-0.668
		C39.184,25.928,39.184,25.714,39.586,25.313z M54.998,43.772c0,4.517-2.7,7.321-7.537,7.321c-4.836,0-7.534-2.805-7.534-7.321
		v-5.13c0-4.517,2.698-7.322,7.534-7.322c4.838,0,7.537,2.806,7.537,7.322V43.772z"/>
	<path fill="#1E252B" d="M47.461,35.596c-1.815,0-2.777,0.989-2.777,2.886v5.452c0,1.897,0.962,2.886,2.777,2.886
		c1.819,0,2.78-0.988,2.78-2.886v-5.452C50.241,36.585,49.28,35.596,47.461,35.596z"/>
	<path fill="#FFFFFF" d="M18.922,22.127l-2.458-0.803c-0.749-0.24-1.069-0.079-1.336,0.749c-0.402,1.229-1.283,1.79-2.619,1.764
		c-1.924,0-2.752-0.935-2.752-3.019v-5.184c0-2.085,0.855-3.021,2.752-3.021c1.362,0,2.244,0.509,2.646,1.764
		c0.267,0.803,0.534,0.937,1.31,0.696l2.432-0.748c0.721-0.241,0.908-0.641,0.642-1.39c-1.017-2.912-3.288-4.596-7.055-4.596
		c-4.784,0-7.482,2.806-7.482,7.322v5.131c0,4.516,2.698,7.323,7.482,7.323c3.768,0,6.093-1.657,7.108-4.596
		C19.859,22.769,19.672,22.368,18.922,22.127z"/>
	<path fill="#FFFFFF" d="M25.15,26.671l0.641-2.272h5.451l0.587,2.272c0.214,0.802,0.588,1.042,1.845,1.042h2.564
		c0.75,0,0.962-0.375,0.722-1.068L31.295,9.595c-0.214-0.669-0.588-0.856-1.283-0.856h-2.859c-0.721,0-1.042,0.161-1.282,0.91
		l-5.639,16.995c-0.24,0.694-0.079,1.068,0.668,1.068h2.485C24.588,27.712,24.936,27.472,25.15,26.671z M27.822,16.89
		c0.348-1.337,0.535-2.912,0.616-3.714h0.187c0.08,0.802,0.293,2.351,0.641,3.714l0.935,3.662h-3.314L27.822,16.89z"/>
	<path fill="#FFFFFF" d="M35.571,44.36c-0.188-0.4-0.454-0.882-0.775-1.229c1.844-0.936,2.94-2.512,2.94-5.158
		c0-4.01-2.513-6.252-6.361-6.252h-6.653c-0.775,0-1.069,0.293-1.069,1.095v16.782c0,0.803,0.294,1.095,1.069,1.095h2.619
		c0.802,0,1.069-0.293,1.069-1.095v-5.506h0.774c1.043,0,1.363,0.401,1.87,1.551l1.684,3.9c0.374,0.883,0.748,1.149,2.031,1.149
		h2.618c0.829,0,0.961-0.535,0.641-1.204L35.571,44.36z M31.055,40.031H28.41v-4.035h2.645c1.203,0,1.925,0.749,1.925,1.978
		C32.979,39.283,32.258,40.031,31.055,40.031z"/>
	<path fill="#FFFFFF" d="M47.461,31.321c-4.836,0-7.534,2.805-7.534,7.321v5.13c0,4.517,2.698,7.322,7.534,7.322
		c4.838,0,7.537-2.806,7.537-7.322v-5.13C54.998,34.126,52.298,31.321,47.461,31.321z M50.241,43.934
		c0,1.897-0.961,2.886-2.78,2.886c-1.815,0-2.777-0.988-2.777-2.886v-5.452c0-1.896,0.962-2.886,2.777-2.886
		c1.819,0,2.78,0.989,2.78,2.886V43.934z"/>
	<path fill="#FFFFFF" d="M41.376,26.622l0.722-1.523l0.747,1.523c0.215,0.481,0.508,0.534,0.937,0.213l0.802-0.588
		c0.4-0.293,0.374-0.587,0.053-0.935l-1.229-1.362l1.71-0.32c0.562-0.108,0.668-0.348,0.535-0.803l-0.348-0.961
		c-0.161-0.535-0.374-0.642-0.854-0.375l-1.551,0.802l0.293-1.845c0.081-0.48-0.053-0.721-0.641-0.721H41.59
		c-0.481,0-0.669,0.24-0.589,0.721l0.32,1.871l-1.523-0.829c-0.453-0.268-0.748-0.133-0.909,0.347l-0.319,0.989
		c-0.16,0.481-0.028,0.721,0.535,0.802l1.684,0.294l-1.204,1.39c-0.4,0.401-0.4,0.616,0.027,0.935l0.828,0.668
		C40.813,27.183,41.161,27.104,41.376,26.622z"/>
</g>
</svg>
