<?xml version="1.0" encoding="utf-8"?>
<!-- Generator: Adobe Illustrator 16.0.0, SVG Export Plug-In . SVG Version: 6.00 Build 0)  -->
<!DOCTYPE svg PUBLIC "-//W3C//DTD SVG 1.1//EN" "http://www.w3.org/Graphics/SVG/1.1/DTD/svg11.dtd">
<svg version="1.1" id="Capa_1" xmlns="http://www.w3.org/2000/svg" xmlns:xlink="http://www.w3.org/1999/xlink" x="0px" y="0px"
	 width="60px" height="60px" viewBox="0 0 60 60" enable-background="new 0 0 60 60" xml:space="preserve">
<g>
	<path fill="#1E1E1E" d="M29.512,16.196c-0.384-1.508-0.621-3.223-0.709-4.11h-0.207c-0.089,0.887-0.296,2.632-0.681,4.11
		l-1.034,4.052h3.667L29.512,16.196z"/>
	<path fill="#1E1E1E" d="M31.493,37.34h-2.927v4.465h2.927c1.331,0,2.129-0.828,2.129-2.277
		C33.622,38.167,32.823,37.34,31.493,37.34z"/>
	<path fill="#1E252B" d="M57.232,0H2.768C1.239,0,0,1.239,0,2.768v54.464C0,58.761,1.239,60,2.768,60h54.464
		C58.761,60,60,58.761,60,57.232V2.768C60,1.239,58.761,0,57.232,0z M18.807,23.53c-1.124,3.253-3.697,5.086-7.866,5.086
		c-5.294,0-8.28-3.105-8.28-8.103v-5.678c0-4.998,2.986-8.103,8.28-8.103c4.169,0,6.683,1.863,7.807,5.086
		c0.295,0.829,0.088,1.272-0.71,1.538l-2.691,0.828c-0.857,0.266-1.153,0.118-1.449-0.77c-0.444-1.389-1.42-1.952-2.928-1.952
		c-2.1,0-3.045,1.035-3.045,3.342v5.737c0,2.307,0.917,3.341,3.045,3.341c1.479,0.029,2.455-0.591,2.898-1.952
		c0.296-0.917,0.65-1.094,1.479-0.828l2.72,0.888C18.896,22.258,19.103,22.702,18.807,23.53z M20.256,28.173
		c-0.829,0-1.006-0.415-0.74-1.183l6.24-18.807c0.267-0.829,0.621-1.006,1.419-1.006h3.164c0.769,0,1.183,0.208,1.42,0.947
		l6.269,18.866c0.266,0.769,0.03,1.183-0.799,1.183h-2.838c-1.39,0-1.804-0.267-2.041-1.153l-0.65-2.514h-6.033l-0.71,2.514
		c-0.236,0.887-0.621,1.153-1.952,1.153H20.256z M38.501,53.604h-2.898c-1.419,0-1.833-0.296-2.247-1.271l-1.863-4.317
		c-0.562-1.271-0.917-1.715-2.07-1.715h-0.857v6.091c0,0.888-0.296,1.212-1.183,1.212h-2.898c-0.858,0-1.183-0.325-1.183-1.212
		V33.821c0-0.887,0.325-1.212,1.183-1.212h7.363c4.258,0,7.038,2.483,7.038,6.919c0,2.927-1.213,4.672-3.253,5.708
		c0.355,0.384,0.651,0.916,0.857,1.36l2.721,5.678C39.565,53.013,39.418,53.604,38.501,53.604z M40.933,25.517l1.331-1.538
		L40.4,23.655c-0.622-0.089-0.769-0.355-0.592-0.888l0.354-1.094c0.178-0.532,0.503-0.68,1.006-0.384l1.686,0.917l-0.355-2.07
		c-0.088-0.532,0.119-0.798,0.651-0.798h1.064c0.65,0,0.798,0.266,0.709,0.798L44.6,22.176l1.715-0.887
		c0.532-0.296,0.769-0.177,0.946,0.415l0.384,1.064c0.147,0.502,0.029,0.769-0.591,0.888l-1.893,0.355l1.36,1.507
		c0.355,0.385,0.385,0.71-0.059,1.035l-0.887,0.65c-0.474,0.355-0.799,0.296-1.036-0.236l-0.827-1.686l-0.799,1.686
		c-0.237,0.533-0.621,0.621-1.035,0.325l-0.917-0.739C40.489,26.198,40.489,25.961,40.933,25.517z M57.988,45.945
		c0,4.998-2.987,8.102-8.339,8.102c-5.352,0-8.339-3.104-8.339-8.102v-5.678c0-4.998,2.987-8.102,8.339-8.102
		c5.353,0,8.339,3.104,8.339,8.102V45.945z"/>
	<path fill="#1E252B" d="M49.649,36.896c-2.01,0-3.075,1.095-3.075,3.194v6.033c0,2.1,1.065,3.193,3.075,3.193
		c2.012,0,3.076-1.094,3.076-3.193V40.09C52.725,37.991,51.661,36.896,49.649,36.896z"/>
	<path fill="#FFFFFF" d="M18.067,21.992l-2.72-0.888c-0.828-0.266-1.183-0.088-1.479,0.828c-0.444,1.361-1.42,1.981-2.898,1.952
		c-2.129,0-3.045-1.035-3.045-3.341v-5.737c0-2.307,0.946-3.342,3.045-3.342c1.508,0,2.484,0.563,2.928,1.952
		c0.295,0.888,0.591,1.036,1.449,0.77l2.691-0.828c0.798-0.266,1.005-0.709,0.71-1.538c-1.125-3.223-3.638-5.086-7.807-5.086
		c-5.294,0-8.28,3.105-8.28,8.103v5.678c0,4.997,2.986,8.103,8.28,8.103c4.169,0,6.742-1.833,7.866-5.086
		C19.103,22.702,18.896,22.258,18.067,21.992z"/>
	<path fill="#FFFFFF" d="M24.958,27.02l0.71-2.514H31.7l0.65,2.514c0.237,0.887,0.65,1.153,2.041,1.153h2.838
		c0.829,0,1.064-0.415,0.799-1.183L31.759,8.124c-0.237-0.74-0.651-0.947-1.42-0.947h-3.164c-0.798,0-1.153,0.178-1.419,1.006
		l-6.24,18.807c-0.266,0.769-0.088,1.183,0.74,1.183h2.75C24.337,28.173,24.721,27.906,24.958,27.02z M27.915,16.196
		c0.385-1.479,0.592-3.223,0.681-4.11h0.207c0.088,0.887,0.325,2.602,0.709,4.11l1.035,4.052H26.88L27.915,16.196z"/>
	<path fill="#FFFFFF" d="M36.49,46.596c-0.207-0.444-0.502-0.976-0.857-1.36c2.04-1.036,3.253-2.78,3.253-5.708
		c0-4.437-2.78-6.919-7.038-6.919h-7.363c-0.858,0-1.183,0.325-1.183,1.212v18.571c0,0.888,0.325,1.212,1.183,1.212h2.898
		c0.887,0,1.183-0.325,1.183-1.212V46.3h0.857c1.154,0,1.508,0.443,2.07,1.715l1.863,4.317c0.414,0.976,0.828,1.271,2.247,1.271
		h2.898c0.917,0,1.064-0.591,0.709-1.331L36.49,46.596z M31.493,41.805h-2.927V37.34h2.927c1.331,0,2.129,0.828,2.129,2.188
		C33.622,40.977,32.823,41.805,31.493,41.805z"/>
	<path fill="#FFFFFF" d="M49.649,32.166c-5.352,0-8.339,3.104-8.339,8.102v5.678c0,4.998,2.987,8.102,8.339,8.102
		c5.353,0,8.339-3.104,8.339-8.102v-5.678C57.988,35.27,55.001,32.166,49.649,32.166z M52.725,46.123c0,2.1-1.064,3.193-3.076,3.193
		c-2.01,0-3.075-1.094-3.075-3.193V40.09c0-2.099,1.065-3.194,3.075-3.194c2.012,0,3.076,1.095,3.076,3.194V46.123z"/>
	<path fill="#FFFFFF" d="M42.914,26.966l0.799-1.686l0.827,1.686c0.237,0.533,0.562,0.591,1.036,0.236l0.887-0.65
		c0.443-0.325,0.414-0.65,0.059-1.035l-1.36-1.507l1.893-0.355c0.621-0.119,0.739-0.385,0.591-0.888l-0.384-1.064
		c-0.178-0.592-0.415-0.71-0.946-0.415L44.6,22.176l0.325-2.041c0.089-0.532-0.059-0.798-0.709-0.798H43.15
		c-0.532,0-0.739,0.266-0.651,0.798l0.355,2.07l-1.686-0.917c-0.502-0.296-0.828-0.147-1.006,0.384l-0.354,1.094
		c-0.177,0.533-0.03,0.798,0.592,0.888l1.863,0.325l-1.331,1.538c-0.443,0.444-0.443,0.681,0.029,1.035l0.917,0.739
		C42.292,27.587,42.677,27.499,42.914,26.966z"/>
</g>
</svg>
