<?xml version="1.0" encoding="utf-8"?>
<!-- Generator: Adobe Illustrator 16.0.0, SVG Export Plug-In . SVG Version: 6.00 Build 0)  -->
<!DOCTYPE svg PUBLIC "-//W3C//DTD SVG 1.1//EN" "http://www.w3.org/Graphics/SVG/1.1/DTD/svg11.dtd">
<svg version="1.1" id="Capa_1" xmlns="http://www.w3.org/2000/svg" xmlns:xlink="http://www.w3.org/1999/xlink" x="0px" y="0px"
	 width="605.83px" height="791.942px" viewBox="0 0 605.83 791.942" enable-background="new 0 0 605.83 791.942"
	 xml:space="preserve">
<path fill="#FFB700" d="M274.322,512.205c-3.557-34.393-18.549-66.802-38.086-95.333c-15.086-22.027-33.345-42.439-56.287-56.097
	c-36.728-21.87-84.431-24.075-123.018-5.692c-10.401,4.958-20.321,11.454-27.391,20.55c-5.253,6.75-8.772,14.749-10.945,23.025
	c-7.514,28.677,1.4,59.95,18.649,84.065c17.248,24.113,42.048,41.858,68.091,56.028c19.596,10.665,40.925,20.193,54.486,37.908
	c11.416,14.909,16.882,35.091,32.632,45.316C252.573,660.983,278.208,549.789,274.322,512.205z"/>
<path fill="#FF495C" d="M27.331,169.273c-6.695,9.714-8.421,23.022-3.201,33.606c5.221,10.583,17.723,17.452,29.256,14.974
	c6.035-1.293,11.361-4.833,16-8.894c20.49-17.925,29.506-47.933,22.291-74.177c-4.381-15.936-25.596-37.31-39.852-17.838
	c-4.361,5.958-2.119,16.582-4.264,23.389C43.708,152.57,34.347,159.088,27.331,169.273z"/>
<g enable-background="new    ">
	<path fill="#1E252B" d="M108.046,328.343v11.177H83.64v15.862h20.325v11.22H83.64v24.374H69.764v-62.633H108.046z"/>
	<path fill="#1E252B" d="M112.78,390.975v-44.578h7.509c0.626,0,1.149,0.058,1.571,0.172c0.422,0.115,0.775,0.294,1.062,0.537
		c0.286,0.244,0.503,0.566,0.653,0.967c0.149,0.401,0.279,0.889,0.388,1.461l0.694,4.168c1.551-2.521,3.292-4.513,5.224-5.975
		c1.932-1.462,4.041-2.192,6.326-2.192c1.932,0,3.482,0.487,4.652,1.461l-1.632,9.801c-0.109,0.602-0.327,1.023-0.653,1.268
		c-0.327,0.244-0.762,0.366-1.306,0.366c-0.463,0-1.007-0.064-1.632-0.194c-0.626-0.129-1.415-0.192-2.367-0.192
		c-3.32,0-5.932,1.862-7.836,5.589v27.34L112.78,390.975L112.78,390.975z"/>
	<path fill="#1E252B" d="M165.346,345.709c3.21,0,6.135,0.531,8.774,1.59c2.639,1.061,4.904,2.579,6.795,4.557
		c1.891,1.978,3.36,4.378,4.408,7.201c1.047,2.823,1.571,5.996,1.571,9.521c0,3.555-0.524,6.758-1.571,9.607
		c-1.048,2.853-2.517,5.273-4.408,7.266c-1.892,1.992-4.157,3.524-6.795,4.601c-2.639,1.074-5.564,1.61-8.774,1.61
		c-3.238,0-6.183-0.536-8.836-1.61c-2.653-1.075-4.938-2.607-6.856-4.601c-1.918-1.991-3.401-4.413-4.449-7.266
		c-1.048-2.851-1.571-6.054-1.571-9.607c0-3.524,0.523-6.697,1.571-9.521c1.047-2.822,2.53-5.224,4.449-7.201
		c1.918-1.978,4.204-3.496,6.856-4.557C159.163,346.241,162.108,345.709,165.346,345.709z M165.346,381.775
		c2.911,0,5.054-1.081,6.428-3.246c1.374-2.163,2.061-5.45,2.061-9.864c0-4.413-0.688-7.694-2.061-9.845
		c-1.374-2.148-3.517-3.225-6.428-3.225c-2.994,0-5.184,1.075-6.571,3.225c-1.388,2.149-2.082,5.432-2.082,9.845
		c0,4.414,0.694,7.701,2.082,9.864C160.162,380.694,162.352,381.775,165.346,381.775z"/>
	<path fill="#1E252B" d="M193.831,390.975v-44.578h7.836c0.789,0,1.449,0.187,1.979,0.559c0.53,0.373,0.904,0.932,1.122,1.676
		l0.735,2.58c0.816-0.802,1.659-1.548,2.53-2.235c0.871-0.688,1.802-1.268,2.796-1.741c0.993-0.473,2.067-0.845,3.224-1.118
		c1.156-0.272,2.414-0.408,3.775-0.408c2.313,0,4.36,0.423,6.142,1.268c1.782,0.846,3.286,2.021,4.51,3.525
		c1.225,1.504,2.149,3.296,2.775,5.374c0.625,2.077,0.938,4.335,0.938,6.771v28.329h-12.651v-28.329
		c0-2.177-0.477-3.875-1.429-5.094c-0.953-1.218-2.354-1.827-4.204-1.827c-1.388,0-2.693,0.316-3.918,0.946
		c-1.224,0.631-2.395,1.477-3.51,2.536v31.768L193.831,390.975L193.831,390.975z"/>
	<path fill="#1E252B" d="M256.028,391.663c-2.014,0-3.789-0.309-5.326-0.925c-1.538-0.615-2.83-1.489-3.877-2.622
		c-1.047-1.132-1.843-2.5-2.387-4.104c-0.545-1.604-0.816-3.396-0.816-5.373v-23.042h-3.591c-0.653,0-1.211-0.222-1.673-0.666
		c-0.463-0.444-0.694-1.097-0.694-1.956v-5.201l6.734-1.376l2.49-10.875c0.326-1.375,1.251-2.063,2.775-2.063h6.612v13.025h10.285
		v9.113h-10.285v22.139c0,1.032,0.238,1.886,0.714,2.559c0.476,0.674,1.163,1.011,2.061,1.011c0.462,0,0.85-0.05,1.163-0.15
		s0.584-0.215,0.816-0.345c0.231-0.129,0.449-0.242,0.653-0.344c0.204-0.101,0.442-0.15,0.714-0.15c0.381,0,0.687,0.095,0.918,0.279
		c0.231,0.188,0.469,0.479,0.714,0.882l3.836,6.319c-1.633,1.289-3.469,2.257-5.51,2.9
		C260.313,391.342,258.205,391.663,256.028,391.663z"/>
	<path fill="#1E252B" d="M307.696,345.709c2.802,0,5.365,0.458,7.693,1.375c2.326,0.917,4.324,2.25,5.998,3.998
		s2.979,3.89,3.918,6.426c0.939,2.536,1.408,5.41,1.408,8.619c0,1.004-0.041,1.819-0.123,2.449c-0.08,0.632-0.23,1.134-0.447,1.506
		c-0.219,0.371-0.512,0.631-0.879,0.772c-0.366,0.145-0.836,0.215-1.407,0.215h-24.406c0.408,3.727,1.483,6.428,3.224,8.104
		c1.741,1.677,3.986,2.515,6.734,2.515c1.47,0,2.734-0.187,3.796-0.559s2.006-0.788,2.836-1.247c0.83-0.458,1.593-0.874,2.286-1.246
		c0.693-0.373,1.421-0.561,2.184-0.561c1.006,0,1.769,0.388,2.285,1.161l3.674,4.771c-1.307,1.576-2.715,2.857-4.225,3.848
		c-1.511,0.988-3.063,1.762-4.652,2.321c-1.593,0.559-3.184,0.945-4.774,1.16s-3.109,0.321-4.552,0.321
		c-2.965,0-5.747-0.509-8.346-1.524c-2.598-1.019-4.871-2.529-6.815-4.535c-1.946-2.006-3.483-4.499-4.612-7.48
		c-1.129-2.979-1.694-6.447-1.694-10.401c0-2.98,0.483-5.804,1.449-8.469c0.965-2.665,2.353-5.001,4.163-7.007
		c1.809-2.006,4-3.596,6.571-4.772C301.554,346.296,304.458,345.709,307.696,345.709z M307.941,354.908
		c-2.423,0-4.313,0.725-5.675,2.171c-1.36,1.447-2.257,3.532-2.692,6.256h15.795c0-1.062-0.13-2.093-0.388-3.097
		c-0.26-1.003-0.682-1.896-1.266-2.687c-0.586-0.788-1.354-1.425-2.307-1.913C310.457,355.152,309.302,354.908,307.941,354.908z"/>
	<path fill="#1E252B" d="M333.978,390.975v-44.578h7.837c0.788,0,1.448,0.187,1.979,0.559c0.53,0.373,0.904,0.932,1.122,1.676
		l0.734,2.58c0.816-0.802,1.658-1.548,2.529-2.235c0.871-0.688,1.804-1.268,2.797-1.741c0.992-0.473,2.066-0.845,3.225-1.118
		c1.155-0.272,2.414-0.408,3.773-0.408c2.313,0,4.36,0.423,6.144,1.268c1.781,0.846,3.285,2.021,4.51,3.525
		c1.226,1.504,2.149,3.296,2.775,5.374c0.625,2.077,0.938,4.335,0.938,6.771v28.329h-12.651v-28.329
		c0-2.177-0.478-3.875-1.429-5.094c-0.953-1.218-2.354-1.827-4.205-1.827c-1.388,0-2.692,0.316-3.918,0.946
		c-1.224,0.631-2.395,1.477-3.51,2.536v31.768L333.978,390.975L333.978,390.975z"/>
	<path fill="#1E252B" d="M411.031,390.975c-0.79,0-1.449-0.187-1.979-0.559c-0.531-0.372-0.904-0.933-1.123-1.678l-0.979-3.396
		c-0.843,0.946-1.729,1.806-2.652,2.58c-0.925,0.772-1.925,1.438-3,1.999c-1.074,0.559-2.23,0.987-3.469,1.289
		c-1.238,0.301-2.578,0.45-4.02,0.45c-2.205,0-4.245-0.516-6.123-1.547c-1.877-1.031-3.496-2.521-4.855-4.471
		c-1.361-1.949-2.429-4.335-3.204-7.158c-0.774-2.821-1.163-6.039-1.163-9.649c0-3.324,0.436-6.412,1.307-9.265
		c0.871-2.852,2.102-5.314,3.692-7.394c1.593-2.078,3.503-3.704,5.734-4.879c2.229-1.175,4.692-1.762,7.387-1.762
		c2.177,0,4.021,0.337,5.53,1.01c1.509,0.673,2.877,1.555,4.102,2.644v-22.568h12.652v64.352H411.031z M398.216,381.433
		c0.926,0,1.762-0.093,2.51-0.279c0.748-0.186,1.436-0.452,2.063-0.796c0.625-0.344,1.217-0.772,1.775-1.289
		c0.557-0.517,1.107-1.118,1.652-1.806v-18.914c-0.979-1.118-2.021-1.898-3.123-2.344c-1.102-0.443-2.265-0.666-3.488-0.666
		c-1.17,0-2.245,0.244-3.226,0.729c-0.979,0.488-1.829,1.27-2.551,2.345c-0.721,1.073-1.285,2.472-1.692,4.189
		c-0.408,1.72-0.612,3.798-0.612,6.233c0,2.351,0.163,4.328,0.489,5.933c0.326,1.605,0.781,2.901,1.367,3.891
		c0.586,0.988,1.285,1.697,2.103,2.128C396.298,381.218,397.209,381.433,398.216,381.433z"/>
</g>
<g enable-background="new    ">
	<path fill="#1E252B" d="M123.718,452.712c0,4.527-0.742,8.705-2.224,12.529c-1.483,3.826-3.571,7.137-6.265,9.932
		c-2.694,2.793-5.938,4.973-9.734,6.533c-3.795,1.563-8.006,2.344-12.631,2.344h-23.1v-62.634h23.1
		c4.625,0,8.836,0.789,12.631,2.363c3.796,1.576,7.04,3.756,9.734,6.535c2.693,2.779,4.781,6.082,6.265,9.908
		C122.976,444.049,123.718,448.213,123.718,452.712z M109.597,452.712c0-3.097-0.381-5.892-1.143-8.384
		c-0.762-2.492-1.857-4.605-3.285-6.34c-1.429-1.734-3.177-3.066-5.245-3.998c-2.068-0.932-4.422-1.396-7.061-1.396h-9.224v40.278
		h9.224c2.639,0,4.993-0.467,7.061-1.396c2.067-0.932,3.816-2.264,5.245-3.998c1.428-1.734,2.523-3.848,3.285-6.34
		C109.216,458.644,109.597,455.835,109.597,452.712z"/>
	<path fill="#1E252B" d="M148.45,438.784c2.802,0,5.367,0.459,7.693,1.375c2.326,0.918,4.326,2.25,5.999,3.998
		s2.979,3.891,3.918,6.428c0.939,2.536,1.408,5.409,1.408,8.618c0,1.004-0.041,1.82-0.123,2.449
		c-0.082,0.631-0.231,1.133-0.449,1.506c-0.218,0.371-0.51,0.631-0.877,0.773c-0.367,0.143-0.837,0.215-1.408,0.215h-24.406
		c0.408,3.727,1.483,6.426,3.224,8.104c1.741,1.678,3.986,2.516,6.734,2.516c1.469,0,2.734-0.188,3.795-0.559
		c1.061-0.373,2.006-0.789,2.836-1.248c0.83-0.457,1.592-0.873,2.286-1.246c0.693-0.373,1.421-0.561,2.183-0.561
		c1.006,0,1.769,0.389,2.286,1.162l3.673,4.771c-1.306,1.576-2.714,2.857-4.224,3.848c-1.51,0.988-3.061,1.762-4.653,2.32
		c-1.592,0.559-3.183,0.945-4.775,1.16c-1.592,0.215-3.109,0.322-4.551,0.322c-2.966,0-5.748-0.51-8.346-1.525
		c-2.598-1.018-4.871-2.529-6.815-4.535c-1.946-2.006-3.483-4.498-4.612-7.48c-1.129-2.979-1.694-6.447-1.694-10.4
		c0-2.98,0.483-5.805,1.449-8.471c0.965-2.665,2.353-5.001,4.163-7.007c1.809-2.006,4-3.596,6.571-4.77
		C142.306,439.374,145.211,438.784,148.45,438.784z M148.695,447.983c-2.422,0-4.313,0.725-5.673,2.17
		c-1.361,1.447-2.258,3.532-2.693,6.255h15.794c0-1.061-0.129-2.092-0.388-3.096c-0.259-1.002-0.681-1.896-1.265-2.687
		c-0.585-0.787-1.354-1.426-2.306-1.912C151.211,448.227,150.055,447.983,148.695,447.983z"/>
	<path fill="#1E252B" d="M196.527,484.05h-11.509l-16.406-44.579h10.529c0.898,0,1.653,0.223,2.265,0.666
		c0.612,0.445,1.027,0.998,1.245,1.656l5.877,19.987c0.462,1.635,0.904,3.227,1.326,4.771c0.421,1.549,0.782,3.096,1.082,4.643
		c0.299-1.547,0.667-3.094,1.102-4.643c0.435-1.547,0.898-3.137,1.388-4.771l6.122-19.987c0.217-0.658,0.625-1.211,1.225-1.656
		c0.598-0.443,1.306-0.666,2.122-0.666h10.04L196.527,484.05z"/>
	<path fill="#1E252B" d="M234.727,438.784c2.802,0,5.367,0.459,7.693,1.375c2.326,0.918,4.326,2.25,5.999,3.998
		c1.673,1.748,2.979,3.891,3.918,6.428c0.939,2.536,1.408,5.409,1.408,8.618c0,1.004-0.041,1.82-0.123,2.449
		c-0.082,0.631-0.231,1.133-0.449,1.506c-0.218,0.371-0.51,0.631-0.877,0.773c-0.368,0.143-0.837,0.215-1.408,0.215h-24.406
		c0.408,3.727,1.483,6.426,3.224,8.104c1.741,1.678,3.986,2.516,6.734,2.516c1.469,0,2.734-0.188,3.795-0.559
		c1.061-0.373,2.006-0.789,2.836-1.248c0.83-0.457,1.592-0.873,2.286-1.246c0.693-0.373,1.421-0.561,2.183-0.561
		c1.006,0,1.769,0.389,2.286,1.162l3.673,4.771c-1.306,1.576-2.714,2.857-4.224,3.848c-1.51,0.988-3.062,1.762-4.653,2.32
		s-3.183,0.945-4.775,1.16c-1.592,0.215-3.109,0.322-4.551,0.322c-2.966,0-5.748-0.51-8.346-1.525
		c-2.598-1.018-4.871-2.529-6.815-4.535c-1.946-2.006-3.483-4.498-4.612-7.48c-1.129-2.979-1.694-6.447-1.694-10.4
		c0-2.98,0.483-5.805,1.449-8.471c0.965-2.665,2.353-5.001,4.163-7.007c1.809-2.006,4-3.596,6.571-4.77
		S231.489,438.784,234.727,438.784z M234.972,447.983c-2.422,0-4.313,0.725-5.673,2.17c-1.361,1.447-2.258,3.532-2.693,6.255H242.4
		c0-1.061-0.129-2.092-0.388-3.096c-0.259-1.002-0.681-1.896-1.265-2.687c-0.585-0.787-1.354-1.426-2.306-1.912
		C237.489,448.227,236.332,447.983,234.972,447.983z"/>
	<path fill="#1E252B" d="M274.07,419.696v64.354h-12.652v-64.354H274.07z"/>
	<path fill="#1E252B" d="M303.127,438.784c3.21,0,6.136,0.529,8.774,1.592c2.638,1.061,4.904,2.578,6.796,4.557
		c1.891,1.977,3.358,4.377,4.407,7.2c1.047,2.822,1.57,5.996,1.57,9.52c0,3.555-0.523,6.758-1.57,9.607
		c-1.049,2.854-2.518,5.273-4.407,7.266c-1.892,1.992-4.157,3.525-6.796,4.602c-2.639,1.072-5.564,1.609-8.774,1.609
		c-3.238,0-6.183-0.537-8.836-1.609c-2.653-1.076-4.938-2.607-6.856-4.602c-1.918-1.992-3.401-4.412-4.449-7.266
		c-1.048-2.852-1.571-6.053-1.571-9.607c0-3.523,0.523-6.697,1.571-9.52c1.047-2.823,2.53-5.226,4.449-7.2
		c1.918-1.979,4.204-3.496,6.856-4.557C296.943,439.313,299.889,438.784,303.127,438.784z M303.127,474.849
		c2.911,0,5.054-1.08,6.429-3.246c1.373-2.162,2.062-5.451,2.062-9.865c0-4.412-0.688-7.693-2.062-9.844
		c-1.375-2.149-3.518-3.224-6.429-3.224c-2.994,0-5.184,1.074-6.571,3.224c-1.388,2.15-2.082,5.432-2.082,9.844
		c0,4.414,0.694,7.703,2.082,9.865C297.943,473.769,300.133,474.849,303.127,474.849z"/>
	<path fill="#1E252B" d="M331.613,498.191v-58.72h7.836c0.789,0,1.448,0.188,1.979,0.559c0.529,0.373,0.903,0.934,1.121,1.678
		l0.938,3.268c0.815-0.945,1.694-1.805,2.633-2.58c0.938-0.771,1.944-1.438,3.021-1.998c1.074-0.559,2.229-0.996,3.47-1.311
		c1.237-0.316,2.591-0.475,4.061-0.475c2.204,0,4.244,0.518,6.122,1.549c1.877,1.031,3.495,2.521,4.856,4.471
		c1.36,1.949,2.428,4.336,3.204,7.158c0.774,2.821,1.162,6.024,1.162,9.606c0,3.354-0.442,6.447-1.326,9.285
		c-0.885,2.836-2.122,5.303-3.715,7.393c-1.592,2.094-3.496,3.729-5.713,4.902c-2.219,1.174-4.674,1.762-7.367,1.762
		c-2.203,0-4.055-0.33-5.551-0.988s-2.855-1.549-4.08-2.664v17.105H331.613z M352.265,448.799c-0.926,0-1.763,0.094-2.511,0.279
		c-0.747,0.188-1.442,0.451-2.081,0.797c-0.64,0.344-1.23,0.779-1.774,1.311c-0.546,0.531-1.089,1.14-1.634,1.827v18.914
		c0.953,1.117,1.986,1.898,3.103,2.344s2.286,0.666,3.51,0.666c1.171,0,2.245-0.244,3.226-0.73c0.979-0.486,1.828-1.27,2.551-2.344
		c0.721-1.074,1.285-2.473,1.693-4.189c0.407-1.721,0.611-3.813,0.611-6.277c0-2.35-0.163-4.326-0.488-5.932
		c-0.328-1.605-0.783-2.902-1.367-3.892c-0.586-0.988-1.286-1.697-2.104-2.127C354.183,449.014,353.271,448.799,352.265,448.799z"/>
	<path fill="#1E252B" d="M396.911,438.784c2.803,0,5.367,0.459,7.693,1.375c2.326,0.918,4.326,2.25,5.998,3.998
		c1.675,1.748,2.979,3.891,3.918,6.428c0.939,2.536,1.408,5.409,1.408,8.618c0,1.004-0.041,1.82-0.121,2.449
		c-0.082,0.631-0.231,1.133-0.449,1.506c-0.219,0.371-0.51,0.631-0.877,0.773c-0.368,0.143-0.838,0.215-1.408,0.215h-24.406
		c0.408,3.727,1.483,6.426,3.225,8.104c1.742,1.678,3.985,2.516,6.734,2.516c1.469,0,2.734-0.188,3.795-0.559
		c1.063-0.373,2.006-0.789,2.838-1.248c0.828-0.457,1.592-0.873,2.284-1.246c0.693-0.373,1.423-0.561,2.185-0.561
		c1.006,0,1.769,0.389,2.285,1.162l3.672,4.771c-1.306,1.576-2.713,2.857-4.224,3.848c-1.51,0.988-3.061,1.762-4.651,2.32
		c-1.592,0.559-3.185,0.945-4.775,1.16s-3.107,0.322-4.551,0.322c-2.967,0-5.748-0.51-8.346-1.525
		c-2.6-1.018-4.871-2.529-6.815-4.535c-1.946-2.006-3.483-4.498-4.612-7.48c-1.129-2.979-1.693-6.447-1.693-10.4
		c0-2.98,0.482-5.805,1.449-8.471c0.965-2.665,2.354-5.001,4.162-7.007s4-3.596,6.571-4.77S393.673,438.784,396.911,438.784z
		 M397.156,447.983c-2.422,0-4.313,0.725-5.673,2.17c-1.361,1.447-2.26,3.532-2.693,6.255h15.794c0-1.061-0.129-2.092-0.388-3.096
		c-0.26-1.002-0.682-1.896-1.266-2.687c-0.586-0.787-1.354-1.426-2.307-1.912C399.673,448.227,398.517,447.983,397.156,447.983z"/>
	<path fill="#1E252B" d="M423.194,484.05v-44.579h7.509c0.626,0,1.149,0.059,1.571,0.172c0.422,0.115,0.774,0.295,1.062,0.539
		c0.285,0.242,0.503,0.564,0.652,0.967s0.279,0.889,0.388,1.461l0.694,4.17c1.551-2.521,3.292-4.514,5.224-5.975
		c1.933-1.463,4.041-2.193,6.326-2.193c1.932,0,3.482,0.488,4.652,1.461l-1.632,9.803c-0.109,0.602-0.327,1.023-0.653,1.268
		s-0.762,0.367-1.306,0.367c-0.465,0-1.009-0.064-1.634-0.195c-0.626-0.129-1.415-0.191-2.366-0.191
		c-3.32,0-5.933,1.862-7.837,5.589v27.34h-12.65V484.05z"/>
	<path fill="#1E252B" d="M494.859,420.729c2.639,0,4.965,0.408,6.979,1.225c2.015,0.816,3.714,1.893,5.103,3.225
		c1.388,1.332,2.476,2.873,3.265,4.621s1.279,3.541,1.47,5.373l-8.162,1.721c-0.137,0.029-0.252,0.051-0.348,0.064
		s-0.197,0.02-0.306,0.02c-1.144,0-1.986-0.629-2.53-1.891c-0.626-1.49-1.354-2.623-2.184-3.396s-1.926-1.162-3.285-1.162
		c-0.953,0-1.782,0.188-2.49,0.561c-0.707,0.373-1.299,0.859-1.775,1.461c-0.476,0.602-0.836,1.305-1.08,2.105
		c-0.245,0.805-0.367,1.635-0.367,2.494c0,0.746,0.062,1.461,0.184,2.148s0.326,1.383,0.612,2.086
		c0.285,0.701,0.68,1.426,1.184,2.17c0.503,0.746,1.148,1.549,1.938,2.408l14.691,16.335c0.734-1.721,1.319-3.512,1.756-5.373
		c0.435-1.863,0.747-3.797,0.938-5.806c0.055-0.801,0.307-1.432,0.755-1.891c0.449-0.459,1.041-0.688,1.775-0.688h7.999
		c0,4.185-0.53,8.089-1.591,11.714c-1.063,3.627-2.571,6.943-4.53,9.953l12.488,13.842h-12.488c-0.627,0-1.185-0.035-1.674-0.107
		s-0.945-0.193-1.367-0.365s-0.823-0.416-1.204-0.73s-0.789-0.717-1.224-1.203l-2.571-2.838c-2.586,1.893-5.408,3.354-8.469,4.385
		c-3.062,1.031-6.319,1.547-9.774,1.547c-2.367,0-4.688-0.43-6.959-1.289s-4.292-2.084-6.061-3.676
		c-1.77-1.59-3.197-3.518-4.285-5.781c-1.089-2.264-1.633-4.799-1.633-7.607c0-1.893,0.278-3.684,0.837-5.373
		c0.558-1.691,1.34-3.26,2.347-4.707s2.21-2.766,3.612-3.955c1.399-1.188,2.932-2.229,4.591-3.116
		c-1.279-2.092-2.203-4.143-2.775-6.146c-0.57-2.008-0.855-3.955-0.855-5.848c0-2.234,0.388-4.35,1.163-6.342
		c0.774-1.99,1.903-3.738,3.388-5.244c1.481-1.504,3.306-2.701,5.469-3.59C489.574,421.174,492.056,420.729,494.859,420.729z
		 M482.534,465.308c0,1.375,0.196,2.621,0.592,3.738c0.395,1.119,0.959,2.078,1.693,2.881c0.733,0.803,1.611,1.426,2.633,1.869
		c1.02,0.445,2.155,0.668,3.407,0.668c1.821,0,3.517-0.252,5.081-0.754c1.563-0.5,3.025-1.209,4.388-2.127l-13.672-15.262
		c-1.497,1.289-2.56,2.693-3.185,4.213S482.534,463.644,482.534,465.308z"/>
	<path fill="#1E252B" d="M553.873,420.729c2.639,0,4.965,0.408,6.979,1.225c2.014,0.816,3.714,1.893,5.102,3.225
		s2.477,2.873,3.265,4.621c0.789,1.748,1.279,3.541,1.471,5.373l-8.162,1.721c-0.138,0.029-0.252,0.051-0.349,0.064
		c-0.096,0.014-0.196,0.02-0.306,0.02c-1.143,0-1.986-0.629-2.53-1.891c-0.626-1.49-1.354-2.623-2.184-3.396
		s-1.925-1.162-3.285-1.162c-0.953,0-1.782,0.188-2.49,0.561c-0.707,0.373-1.299,0.859-1.774,1.461
		c-0.477,0.602-0.836,1.305-1.081,2.105c-0.245,0.805-0.367,1.635-0.367,2.494c0,0.746,0.062,1.461,0.184,2.148
		s0.326,1.383,0.612,2.086c0.285,0.701,0.68,1.426,1.185,2.17c0.503,0.746,1.147,1.549,1.938,2.408l14.692,16.335
		c0.733-1.721,1.318-3.512,1.755-5.373c0.435-1.863,0.748-3.797,0.938-5.806c0.056-0.801,0.308-1.432,0.755-1.891
		c0.449-0.459,1.041-0.688,1.775-0.688h7.999c0,4.185-0.53,8.089-1.591,11.714c-1.063,3.627-2.571,6.943-4.53,9.953l12.488,13.842
		h-12.488c-0.627,0-1.184-0.035-1.674-0.107c-0.489-0.072-0.945-0.193-1.367-0.365s-0.823-0.416-1.204-0.73
		s-0.789-0.717-1.224-1.203l-2.571-2.838c-2.586,1.893-5.408,3.354-8.469,4.385c-3.062,1.031-6.319,1.547-9.774,1.547
		c-2.367,0-4.688-0.43-6.959-1.289c-2.271-0.859-4.292-2.084-6.061-3.676c-1.77-1.59-3.197-3.518-4.285-5.781
		c-1.089-2.264-1.633-4.799-1.633-7.607c0-1.893,0.279-3.684,0.837-5.373c0.558-1.691,1.34-3.26,2.347-4.707s2.21-2.766,3.612-3.955
		c1.4-1.188,2.932-2.229,4.591-3.116c-1.279-2.092-2.203-4.143-2.775-6.146c-0.57-2.008-0.855-3.955-0.855-5.848
		c0-2.234,0.388-4.35,1.163-6.342c0.774-1.99,1.904-3.738,3.388-5.244c1.482-1.504,3.307-2.701,5.469-3.59
		C548.588,421.174,551.07,420.729,553.873,420.729z M541.548,465.308c0,1.375,0.196,2.621,0.592,3.738
		c0.395,1.119,0.959,2.078,1.693,2.881s1.612,1.426,2.633,1.869c1.021,0.445,2.155,0.668,3.407,0.668
		c1.822,0,3.517-0.252,5.081-0.754c1.564-0.5,3.026-1.209,4.388-2.127l-13.672-15.262c-1.497,1.289-2.559,2.693-3.184,4.213
		C541.86,462.054,541.548,463.644,541.548,465.308z"/>
</g>
<g enable-background="new    ">
	<path fill="#1E252B" d="M97.762,566.634c1.904,0,3.592-0.172,5.061-0.518c1.469-0.344,2.856-0.801,4.163-1.375v-9.5h-5.877
		c-0.871,0-1.551-0.242-2.041-0.73c-0.49-0.486-0.735-1.104-0.735-1.848v-7.996h21.141v26.438c-1.524,1.176-3.109,2.186-4.755,3.031
		s-3.401,1.539-5.265,2.084c-1.864,0.545-3.851,0.945-5.958,1.203c-2.109,0.258-4.374,0.387-6.795,0.387
		c-4.354,0-8.38-0.809-12.081-2.428c-3.7-1.619-6.904-3.855-9.611-6.707c-2.708-2.852-4.83-6.232-6.367-10.145
		s-2.306-8.16-2.306-12.746c0-4.672,0.735-8.963,2.204-12.875c1.469-3.91,3.571-7.285,6.305-10.123
		c2.734-2.836,6.041-5.043,9.917-6.619s8.209-2.365,12.999-2.365c2.476,0,4.802,0.215,6.979,0.645
		c2.176,0.432,4.183,1.02,6.02,1.764c1.836,0.746,3.516,1.635,5.04,2.666c1.523,1.031,2.884,2.148,4.081,3.354l-4,6.404
		c-0.381,0.602-0.836,1.074-1.367,1.418c-0.53,0.344-1.109,0.516-1.734,0.516c-0.816,0-1.66-0.285-2.53-0.857
		c-1.089-0.689-2.116-1.283-3.082-1.785c-0.966-0.5-1.953-0.908-2.959-1.225c-1.007-0.314-2.068-0.545-3.183-0.688
		c-1.116-0.143-2.367-0.215-3.755-0.215c-2.585,0-4.911,0.479-6.979,1.439c-2.068,0.959-3.83,2.314-5.285,4.063
		c-1.455,1.75-2.578,3.848-3.367,6.297c-0.79,2.451-1.184,5.182-1.184,8.189c0,3.324,0.435,6.275,1.306,8.855
		c0.87,2.578,2.074,4.758,3.612,6.533c1.537,1.777,3.36,3.131,5.469,4.063S95.258,566.634,97.762,566.634z"/>
	<path fill="#1E252B" d="M127.88,577.123v-44.578h7.509c0.626,0,1.149,0.059,1.571,0.172c0.422,0.115,0.775,0.295,1.062,0.539
		c0.286,0.242,0.503,0.564,0.653,0.967c0.149,0.4,0.279,0.889,0.388,1.461l0.694,4.17c1.551-2.521,3.292-4.514,5.224-5.975
		c1.932-1.463,4.041-2.193,6.326-2.193c1.932,0,3.482,0.488,4.652,1.461l-1.633,9.801c-0.109,0.604-0.327,1.025-0.653,1.27
		c-0.327,0.244-0.762,0.365-1.306,0.365c-0.463,0-1.007-0.064-1.632-0.193c-0.626-0.129-1.415-0.193-2.367-0.193
		c-3.32,0-5.932,1.863-7.836,5.588v27.342H127.88V577.123z"/>
	<path fill="#1E252B" d="M189.996,577.123c-1.198,0-2.102-0.172-2.714-0.516c-0.612-0.344-1.122-1.061-1.53-2.148l-0.898-2.451
		c-1.061,0.945-2.082,1.777-3.061,2.494s-1.993,1.324-3.04,1.826c-1.048,0.502-2.163,0.873-3.347,1.117
		c-1.184,0.242-2.497,0.365-3.938,0.365c-1.932,0-3.687-0.266-5.265-0.799c-1.579-0.531-2.918-1.314-4.02-2.35
		s-1.953-2.322-2.551-3.859c-0.599-1.539-0.898-3.314-0.898-5.326c0-1.582,0.381-3.207,1.143-4.873
		c0.762-1.668,2.082-3.186,3.959-4.551c1.877-1.365,4.408-2.508,7.591-3.428c3.184-0.92,7.196-1.381,12.04-1.381v-1.908
		c0-2.633-0.51-4.535-1.53-5.705c-1.021-1.172-2.469-1.758-4.347-1.758c-1.497,0-2.721,0.172-3.673,0.516
		c-0.953,0.344-1.803,0.73-2.551,1.16c-0.749,0.43-1.476,0.816-2.184,1.162c-0.708,0.344-1.551,0.516-2.53,0.516
		c-0.871,0-1.612-0.223-2.224-0.666s-1.096-0.996-1.449-1.656l-2.286-4.17c2.557-2.379,5.394-4.146,8.509-5.309
		c3.115-1.16,6.455-1.74,10.02-1.74c2.557,0,4.863,0.438,6.917,1.311c2.054,0.875,3.795,2.094,5.224,3.654
		c1.428,1.563,2.523,3.418,3.285,5.566c0.762,2.148,1.143,4.5,1.143,7.051v27.855H189.996L189.996,577.123z M175.467,568.998
		c1.632,0,3.061-0.301,4.285-0.902c1.225-0.602,2.462-1.576,3.714-2.922v-6.105c-2.53,0-4.612,0.174-6.244,0.521
		s-2.925,0.781-3.877,1.301c-0.953,0.521-1.612,1.113-1.979,1.779c-0.367,0.664-0.551,1.387-0.551,2.166
		c0,1.533,0.394,2.609,1.183,3.23S173.943,568.998,175.467,568.998z"/>
	<path fill="#1E252B" d="M204.769,591.265v-58.721h7.836c0.789,0,1.449,0.188,1.979,0.559c0.53,0.373,0.904,0.932,1.122,1.678
		l0.939,3.268c0.816-0.945,1.694-1.807,2.632-2.58s1.945-1.439,3.02-1.998c1.075-0.559,2.23-0.996,3.469-1.313
		c1.238-0.314,2.591-0.473,4.061-0.473c2.204,0,4.245,0.516,6.122,1.549c1.877,1.031,3.496,2.521,4.856,4.471
		c1.36,1.947,2.428,4.336,3.204,7.156c0.775,2.822,1.163,6.025,1.163,9.607c0,3.354-0.443,6.449-1.327,9.285
		c-0.884,2.838-2.122,5.303-3.714,7.395c-1.592,2.092-3.497,3.727-5.714,4.9c-2.218,1.174-4.673,1.762-7.366,1.762
		c-2.204,0-4.055-0.328-5.551-0.988c-1.497-0.658-2.857-1.547-4.081-2.664v17.107H204.769L204.769,591.265z M225.42,541.873
		c-0.925,0-1.762,0.094-2.51,0.279c-0.749,0.188-1.442,0.451-2.082,0.795c-0.64,0.346-1.231,0.781-1.775,1.313
		s-1.088,1.139-1.632,1.826v18.916c0.952,1.115,1.986,1.896,3.102,2.342c1.115,0.443,2.286,0.666,3.51,0.666
		c1.17,0,2.245-0.242,3.224-0.73c0.98-0.486,1.83-1.268,2.551-2.342c0.721-1.076,1.286-2.473,1.694-4.191
		c0.408-1.721,0.612-3.813,0.612-6.275c0-2.352-0.163-4.328-0.49-5.934c-0.327-1.604-0.783-2.9-1.367-3.891
		c-0.585-0.988-1.286-1.697-2.102-2.127C227.339,542.087,226.427,541.873,225.42,541.873z"/>
	<path fill="#1E252B" d="M251.947,577.123v-64.354h12.652v23.688c1.523-1.375,3.176-2.486,4.958-3.332
		c1.782-0.846,3.911-1.268,6.387-1.268c2.313,0,4.36,0.422,6.142,1.268c1.782,0.846,3.286,2.021,4.51,3.525
		c1.225,1.504,2.149,3.295,2.775,5.373c0.625,2.078,0.938,4.334,0.938,6.771v28.328h-12.651v-28.328
		c0-2.178-0.477-3.875-1.429-5.096c-0.953-1.217-2.354-1.826-4.204-1.826c-1.388,0-2.693,0.316-3.918,0.945
		c-1.224,0.631-2.395,1.479-3.51,2.537v31.768H251.947z"/>
	<path fill="#1E252B" d="M313.818,520.337c0,1.061-0.204,2.057-0.612,2.986c-0.408,0.932-0.967,1.748-1.674,2.449
		c-0.708,0.703-1.53,1.262-2.469,1.678s-1.938,0.623-3,0.623c-1.034,0-2-0.207-2.897-0.623s-1.694-0.975-2.388-1.678
		c-0.694-0.701-1.238-1.518-1.633-2.449s-0.591-1.928-0.591-2.986c0-1.09,0.197-2.107,0.591-3.055
		c0.395-0.943,0.939-1.775,1.633-2.492c0.694-0.717,1.49-1.273,2.388-1.676c0.898-0.402,1.863-0.604,2.897-0.604
		c1.062,0,2.062,0.201,3,0.604c0.938,0.402,1.761,0.959,2.469,1.676c0.707,0.717,1.266,1.549,1.674,2.492
		C313.614,518.23,313.818,519.248,313.818,520.337z M312.349,532.544v44.578h-12.652v-44.578H312.349z"/>
	<path fill="#1E252B" d="M353.078,543.119c-0.381,0.488-0.748,0.875-1.103,1.16c-0.354,0.287-0.856,0.432-1.51,0.432
		c-0.625,0-1.189-0.156-1.693-0.475c-0.504-0.313-1.067-0.666-1.693-1.053s-1.359-0.736-2.204-1.053
		c-0.844-0.314-1.891-0.475-3.143-0.475c-1.552,0-2.892,0.303-4.021,0.904c-1.13,0.602-2.062,1.461-2.796,2.578
		c-0.733,1.117-1.278,2.486-1.633,4.105s-0.53,3.445-0.53,5.48c0,4.271,0.782,7.551,2.348,9.844
		c1.563,2.293,3.721,3.439,6.469,3.439c1.47,0,2.633-0.193,3.488-0.58c0.857-0.387,1.586-0.818,2.185-1.291s1.149-0.908,1.653-1.311
		c0.503-0.4,1.136-0.604,1.896-0.604c1.008,0,1.77,0.387,2.285,1.162l3.674,4.77c-1.307,1.576-2.681,2.859-4.121,3.85
		c-1.442,0.986-2.919,1.762-4.43,2.32c-1.51,0.559-3.025,0.945-4.55,1.16s-3.007,0.322-4.449,0.322
		c-2.585,0-5.054-0.516-7.407-1.547c-2.354-1.033-4.422-2.529-6.203-4.492s-3.197-4.379-4.244-7.244s-1.571-6.133-1.571-9.801
		c0-3.209,0.456-6.213,1.366-9.006c0.912-2.795,2.26-5.217,4.041-7.266s3.985-3.66,6.611-4.836c2.625-1.176,5.666-1.764,9.122-1.764
		c3.318,0,6.229,0.561,8.733,1.678c2.503,1.117,4.761,2.75,6.773,4.9L353.078,543.119z"/>
</g>
<g enable-background="new    ">
	<path fill="#1E252B" d="M123.718,638.859c0,4.527-0.742,8.705-2.224,12.531c-1.483,3.824-3.571,7.135-6.265,9.93
		c-2.694,2.793-5.938,4.973-9.734,6.533c-3.795,1.564-8.006,2.344-12.631,2.344h-23.1v-62.633h23.1
		c4.625,0,8.836,0.789,12.631,2.363c3.796,1.576,7.04,3.756,9.734,6.535c2.693,2.779,4.781,6.082,6.265,9.908
		C122.976,630.197,123.718,634.359,123.718,638.859z M109.597,638.859c0-3.096-0.381-5.891-1.143-8.383
		c-0.762-2.494-1.857-4.607-3.285-6.34c-1.429-1.734-3.177-3.066-5.245-3.998c-2.068-0.932-4.422-1.398-7.061-1.398h-9.224v40.279
		h9.224c2.639,0,4.993-0.465,7.061-1.396c2.067-0.932,3.816-2.264,5.245-3.996c1.428-1.734,2.523-3.85,3.285-6.342
		C109.216,644.792,109.597,641.982,109.597,638.859z"/>
	<path fill="#1E252B" d="M148.45,624.931c2.802,0,5.367,0.459,7.693,1.377c2.326,0.916,4.326,2.25,5.999,3.996
		c1.673,1.75,2.979,3.891,3.918,6.428c0.939,2.535,1.408,5.41,1.408,8.619c0,1.004-0.041,1.82-0.123,2.449
		c-0.082,0.631-0.231,1.133-0.449,1.506c-0.218,0.371-0.51,0.631-0.877,0.773c-0.367,0.143-0.837,0.215-1.408,0.215h-24.406
		c0.408,3.725,1.483,6.426,3.224,8.104c1.741,1.676,3.986,2.516,6.734,2.516c1.469,0,2.734-0.188,3.795-0.561
		c1.061-0.371,2.006-0.787,2.836-1.246s1.592-0.875,2.286-1.246c0.693-0.373,1.421-0.561,2.183-0.561
		c1.006,0,1.769,0.387,2.286,1.162l3.673,4.77c-1.306,1.576-2.714,2.859-4.224,3.85c-1.51,0.986-3.061,1.762-4.653,2.32
		c-1.592,0.559-3.183,0.945-4.775,1.16c-1.592,0.215-3.109,0.322-4.551,0.322c-2.966,0-5.748-0.51-8.346-1.525
		c-2.598-1.018-4.871-2.529-6.815-4.535c-1.946-2.006-3.483-4.5-4.612-7.48c-1.129-2.979-1.694-6.447-1.694-10.402
		c0-2.979,0.483-5.803,1.449-8.469c0.965-2.664,2.353-5,4.163-7.006c1.809-2.006,4-3.598,6.571-4.771
		C142.306,625.521,145.211,624.931,148.45,624.931z M148.695,634.13c-2.422,0-4.313,0.725-5.673,2.172
		c-1.361,1.447-2.258,3.531-2.693,6.254h15.794c0-1.061-0.129-2.092-0.388-3.096c-0.259-1.002-0.681-1.896-1.265-2.688
		c-0.585-0.787-1.354-1.424-2.306-1.912C151.211,634.375,150.055,634.13,148.695,634.13z"/>
	<path fill="#1E252B" d="M200.607,635.378c-0.327,0.543-0.673,0.932-1.041,1.16c-0.368,0.229-0.837,0.344-1.408,0.344
		c-0.599,0-1.198-0.137-1.796-0.408c-0.599-0.273-1.245-0.566-1.938-0.881c-0.693-0.316-1.476-0.609-2.347-0.883
		c-0.871-0.271-1.864-0.408-2.979-0.408c-1.605,0-2.836,0.322-3.693,0.967c-0.857,0.646-1.286,1.541-1.286,2.689
		c0,0.83,0.279,1.518,0.837,2.063c0.557,0.543,1.299,1.023,2.224,1.439s1.972,0.811,3.143,1.182
		c1.169,0.373,2.367,0.789,3.591,1.246c1.225,0.459,2.421,0.996,3.592,1.613c1.169,0.615,2.217,1.375,3.143,2.277
		c0.924,0.902,1.666,1.998,2.224,3.289c0.557,1.289,0.836,2.836,0.836,4.643c0,2.207-0.381,4.24-1.143,6.104
		c-0.762,1.863-1.898,3.469-3.408,4.814c-1.51,1.348-3.374,2.395-5.591,3.139c-2.218,0.746-4.769,1.117-7.652,1.117
		c-1.442,0-2.884-0.145-4.326-0.43c-1.442-0.285-2.836-0.674-4.183-1.16c-1.347-0.486-2.592-1.066-3.734-1.74
		c-1.143-0.674-2.122-1.398-2.938-2.172l2.938-4.9c0.353-0.572,0.775-1.023,1.265-1.354c0.49-0.328,1.129-0.494,1.918-0.494
		c0.735,0,1.394,0.172,1.979,0.516s1.217,0.717,1.898,1.119c0.68,0.4,1.476,0.771,2.387,1.117c0.911,0.344,2.061,0.516,3.449,0.516
		c0.979,0,1.809-0.107,2.49-0.322c0.68-0.215,1.224-0.508,1.632-0.881c0.408-0.373,0.707-0.789,0.898-1.248
		c0.19-0.457,0.286-0.93,0.286-1.418c0-0.889-0.286-1.619-0.857-2.191c-0.571-0.572-1.32-1.066-2.245-1.482
		c-0.925-0.416-1.979-0.803-3.163-1.162c-1.184-0.355-2.388-0.766-3.612-1.225c-1.225-0.457-2.428-1.01-3.612-1.654
		s-2.238-1.461-3.163-2.451c-0.925-0.986-1.673-2.199-2.245-3.633c-0.571-1.432-0.857-3.166-0.857-5.201
		c0-1.891,0.347-3.688,1.041-5.395c0.694-1.705,1.734-3.203,3.122-4.492s3.128-2.314,5.224-3.074
		c2.095-0.758,4.543-1.139,7.346-1.139c1.523,0,3,0.145,4.428,0.43c1.428,0.287,2.768,0.689,4.02,1.205
		c1.251,0.516,2.394,1.125,3.428,1.826c1.034,0.703,1.945,1.469,2.734,2.299L200.607,635.378z"/>
	<path fill="#1E252B" d="M225.175,613.41c0,1.063-0.204,2.059-0.612,2.988c-0.408,0.932-0.966,1.748-1.673,2.449
		c-0.708,0.703-1.53,1.262-2.469,1.678c-0.938,0.416-1.938,0.623-3,0.623c-1.034,0-2-0.207-2.898-0.623
		c-0.897-0.416-1.693-0.975-2.387-1.678c-0.694-0.701-1.238-1.518-1.633-2.449c-0.395-0.932-0.591-1.928-0.591-2.988
		c0-1.088,0.197-2.105,0.591-3.053c0.396-0.943,0.939-1.775,1.633-2.492s1.49-1.273,2.387-1.676c0.898-0.4,1.864-0.604,2.898-0.604
		c1.061,0,2.061,0.201,3,0.604c0.939,0.4,1.761,0.959,2.469,1.676c0.707,0.717,1.265,1.549,1.673,2.492
		C224.971,611.304,225.175,612.322,225.175,613.41z M223.706,625.619v44.578h-12.652v-44.578H223.706z"/>
	<path fill="#1E252B" d="M248.845,624.845c1.795,0,3.489,0.188,5.081,0.559c1.591,0.373,3.067,0.904,4.428,1.592h12.774v4.857
		c0,0.744-0.198,1.332-0.592,1.762c-0.395,0.432-1.068,0.762-2.02,0.988l-3.102,0.732c0.381,1.289,0.572,2.621,0.572,3.996
		c0,2.234-0.443,4.242-1.327,6.02s-2.095,3.287-3.632,4.535c-1.538,1.246-3.354,2.207-5.448,2.879
		c-2.096,0.674-4.34,1.012-6.734,1.012c-1.333,0-2.585-0.086-3.755-0.258c-0.925,0.578-1.388,1.242-1.388,1.996
		c0,0.752,0.374,1.295,1.123,1.627c0.748,0.332,1.734,0.564,2.958,0.693c1.225,0.131,2.625,0.195,4.204,0.195
		s3.184,0.08,4.816,0.236c1.633,0.16,3.238,0.426,4.816,0.799s2.979,0.979,4.204,1.813s2.21,1.945,2.959,3.342
		c0.748,1.395,1.123,3.17,1.123,5.326c0,2.012-0.463,3.979-1.388,5.906c-0.925,1.926-2.286,3.637-4.082,5.133
		c-1.795,1.492-4,2.693-6.611,3.6c-2.612,0.906-5.605,1.359-8.979,1.359c-3.32,0-6.183-0.332-8.591-0.99
		c-2.408-0.66-4.408-1.527-6-2.604c-1.591-1.078-2.769-2.316-3.53-3.723c-0.762-1.406-1.143-2.869-1.143-4.391
		c0-1.98,0.571-3.65,1.714-5.014c1.143-1.361,2.707-2.432,4.693-3.207c-0.953-0.658-1.714-1.502-2.286-2.531
		c-0.572-1.029-0.857-2.332-0.857-3.906c0-0.658,0.108-1.352,0.327-2.08c0.217-0.73,0.557-1.439,1.02-2.125
		c0.462-0.688,1.047-1.346,1.755-1.977c0.708-0.629,1.551-1.188,2.53-1.674c-2.204-1.23-3.938-2.865-5.204-4.9
		c-1.265-2.033-1.897-4.398-1.897-7.094c0-2.234,0.449-4.248,1.347-6.039s2.128-3.311,3.693-4.557
		c1.564-1.246,3.408-2.207,5.53-2.881C244.07,625.183,246.368,624.845,248.845,624.845z M258.232,671.732
		c0-0.73-0.211-1.316-0.633-1.756c-0.422-0.438-0.994-0.789-1.714-1.053c-0.721-0.266-1.565-0.455-2.53-0.572
		c-0.966-0.115-2.007-0.176-3.123-0.176c-1.116,0-2.272,0-3.469,0c-1.198,0-2.381-0.121-3.551-0.365
		c-0.79,0.576-1.436,1.215-1.938,1.918c-0.504,0.703-0.755,1.502-0.755,2.393c0,0.633,0.128,1.207,0.388,1.725
		c0.258,0.516,0.714,0.961,1.367,1.336c0.653,0.373,1.53,0.668,2.632,0.883s2.496,0.324,4.183,0.324
		c1.823,0,3.319-0.119,4.489-0.352c1.169-0.234,2.102-0.557,2.796-0.967c0.694-0.41,1.176-0.9,1.449-1.471
		C258.095,673.027,258.232,672.406,258.232,671.732z M248.845,645.564c2.095,0,3.612-0.551,4.55-1.654
		c0.939-1.104,1.408-2.527,1.408-4.277c0-1.805-0.469-3.225-1.408-4.254c-0.938-1.033-2.456-1.549-4.55-1.549
		c-2.096,0-3.612,0.516-4.551,1.549c-0.938,1.029-1.408,2.449-1.408,4.254c0,0.859,0.116,1.648,0.347,2.365
		c0.231,0.717,0.592,1.34,1.082,1.869c0.49,0.531,1.108,0.945,1.857,1.246C246.92,645.416,247.81,645.564,248.845,645.564z"/>
	<path fill="#1E252B" d="M276.597,670.197v-44.578h7.836c0.789,0,1.449,0.188,1.979,0.559c0.53,0.373,0.904,0.932,1.122,1.678
		l0.735,2.578c0.816-0.801,1.659-1.547,2.53-2.234c0.871-0.688,1.802-1.268,2.796-1.74c0.993-0.475,2.067-0.846,3.224-1.117
		c1.156-0.271,2.414-0.408,3.775-0.408c2.313,0,4.36,0.422,6.143,1.268c1.781,0.846,3.285,2.021,4.51,3.525s2.148,3.295,2.775,5.373
		c0.625,2.078,0.938,4.334,0.938,6.771v28.328h-12.65v-28.328c0-2.178-0.478-3.875-1.43-5.096c-0.953-1.217-2.354-1.826-4.204-1.826
		c-1.388,0-2.693,0.316-3.918,0.945c-1.224,0.631-2.395,1.479-3.51,2.537v31.768h-12.651V670.197z"/>
	<path fill="#1E252B" d="M342.058,624.931c2.804,0,5.367,0.459,7.693,1.377c2.326,0.916,4.326,2.25,5.999,3.996
		c1.675,1.75,2.979,3.891,3.918,6.428c0.939,2.535,1.408,5.41,1.408,8.619c0,1.004-0.041,1.82-0.122,2.449
		c-0.082,0.631-0.23,1.133-0.449,1.506c-0.218,0.371-0.51,0.631-0.877,0.773s-0.837,0.215-1.408,0.215h-24.406
		c0.408,3.725,1.483,6.426,3.226,8.104c1.742,1.676,3.985,2.516,6.733,2.516c1.47,0,2.734-0.188,3.796-0.561
		c1.062-0.371,2.006-0.787,2.837-1.246c0.829-0.459,1.592-0.875,2.285-1.246c0.693-0.373,1.422-0.561,2.184-0.561
		c1.006,0,1.77,0.387,2.285,1.162l3.673,4.77c-1.306,1.576-2.714,2.859-4.224,3.85c-1.51,0.986-3.062,1.762-4.652,2.32
		c-1.592,0.559-3.184,0.945-4.775,1.16c-1.59,0.215-3.107,0.322-4.551,0.322c-2.966,0-5.748-0.51-8.346-1.525
		c-2.6-1.018-4.871-2.529-6.814-4.535c-1.947-2.006-3.483-4.5-4.612-7.48c-1.13-2.979-1.693-6.447-1.693-10.402
		c0-2.979,0.481-5.803,1.449-8.469c0.965-2.664,2.353-5,4.162-7.006c1.809-2.006,4-3.598,6.571-4.771
		C335.917,625.521,338.82,624.931,342.058,624.931z M342.304,634.13c-2.422,0-4.313,0.725-5.672,2.172
		c-1.361,1.447-2.26,3.531-2.693,6.254h15.794c0-1.061-0.13-2.092-0.388-3.096c-0.26-1.002-0.682-1.896-1.266-2.688
		c-0.586-0.787-1.354-1.424-2.307-1.912C344.82,634.375,343.664,634.13,342.304,634.13z"/>
	<path fill="#1E252B" d="M368.343,670.197v-44.578h7.508c0.627,0,1.149,0.059,1.572,0.172c0.422,0.115,0.774,0.295,1.062,0.539
		c0.287,0.242,0.503,0.564,0.653,0.967c0.147,0.4,0.277,0.889,0.388,1.461l0.692,4.17c1.551-2.521,3.293-4.514,5.225-5.977
		c1.932-1.461,4.041-2.191,6.326-2.191c1.932,0,3.481,0.488,4.651,1.461l-1.632,9.803c-0.109,0.602-0.327,1.023-0.652,1.268
		c-0.326,0.244-0.763,0.365-1.307,0.365c-0.463,0-1.007-0.063-1.633-0.193c-0.626-0.129-1.415-0.193-2.367-0.193
		c-3.318,0-5.932,1.863-7.836,5.59v27.34h-12.65V670.197z"/>
	<path fill="#1E252B" d="M423.927,669.681c-0.3,0.773-0.688,1.461-1.162,2.063c-0.478,0.604-1.008,1.104-1.593,1.506
		c-0.586,0.4-1.211,0.701-1.878,0.902c-0.666,0.199-1.326,0.301-1.979,0.301h-5.389l23.183-64.096
		c0.544-1.461,1.373-2.578,2.489-3.352c1.114-0.773,2.407-1.162,3.877-1.162h5.388L423.927,669.681z"/>
	<path fill="#1E252B" d="M487.593,643.802l-33.058,18.184v-9.24c0-0.658,0.163-1.262,0.49-1.807
		c0.326-0.545,0.843-1.018,1.551-1.418l11.591-6.621c0.68-0.4,1.421-0.723,2.225-0.967c0.803-0.244,1.639-0.48,2.51-0.709
		c-0.871-0.23-1.707-0.48-2.51-0.752c-0.804-0.273-1.545-0.609-2.225-1.012l-11.591-6.576c-0.708-0.4-1.225-0.881-1.551-1.439
		c-0.327-0.559-0.49-1.168-0.49-1.828v-9.24l33.058,18.227V643.802z"/>
</g>
<path fill="#6CD0CD" d="M397.813,523.232c-3.322,9.81,2.278,22.499,12.464,24.401c5.214,0.975,10.49-0.803,15.698-1.818
	c7.632-1.492,15.838-1.271,22.822,2.158c6.979,3.427,12.461,10.471,12.602,18.249c0.06,3.083-0.691,6.192-0.179,9.242
	c1.317,7.819,11.102,12.066,18.638,9.598c7.537-2.475,12.629-9.731,15.054-17.278c5.858-18.236-1.864-39.469-17.01-51.195
	C460.146,502.839,407.398,494.905,397.813,523.232z"/>
</svg>
