<?xml version="1.0" encoding="utf-8"?>
<!-- Generator: Adobe Illustrator 16.0.0, SVG Export Plug-In . SVG Version: 6.00 Build 0)  -->
<!DOCTYPE svg PUBLIC "-//W3C//DTD SVG 1.1//EN" "http://www.w3.org/Graphics/SVG/1.1/DTD/svg11.dtd">
<svg version="1.1" id="Capa_1" xmlns="http://www.w3.org/2000/svg" xmlns:xlink="http://www.w3.org/1999/xlink" x="0px" y="0px"
	 width="605.83px" height="791.942px" viewBox="0 0 605.83 791.942" enable-background="new 0 0 605.83 791.942"
	 xml:space="preserve">
<path fill="#6CD0CD" d="M446.669,596.977c-16.839,10.736-36.044,17.178-55.364,22.236c-19.154,5.018-39.396,9.137-54.858,21.51
	c-18.85,15.082-27.33,41.063-23.858,64.949c3.473,23.891,17.854,45.414,36.835,60.33c34.841,27.369,84.323,32.604,126.138,17.955
	c41.815-14.648,75.903-47.391,97.272-86.201c21.368-38.813,30.774-83.35,32.763-127.607c1.016-22.455-0.688-47.223-16.145-63.543
	c-16.357-17.271-44.824-19.35-65.982-8.477c-19.091,9.813-34.616,29.635-40.186,50.324
	C477.529,569.809,465.848,584.754,446.669,596.977z"/>
<path fill="#FF495C" d="M118.602,219.905c30.171,17.208,55.072,42.688,74.554,71.444c26.136,38.587,43.466,83.875,44.86,130.466
	c1.394,46.584-14.052,94.334-46.061,128.209c-25.531,27.027-62.165,44.641-99.296,42.672c-37.126-1.963-73.495-25.496-86.245-60.418
	c-4.772-13.082-6.252-27.156-6.4-41.076c-0.315-28.922,5.058-58.092,17.299-84.301c9.164-19.614,22-37.314,31.479-56.78
	c9.479-19.462,15.534-41.868,9.875-62.764c-4.727-17.457-17.212-31.994-31.834-42.628c-8.919-6.487-19.36-12.516-23.1-22.885
	C-12.035,178.14,91.397,204.389,118.602,219.905z"/>
<path fill="#FFB700" d="M399.939,123.813c-24.701,30.4-38.652,68.367-45.856,106.872c-5.562,29.729-7.286,60.704,0.151,90.021
	c11.9,46.94,48.347,86.916,93.979,103.101c12.303,4.359,25.453,7.104,38.402,5.48c9.615-1.201,18.841-4.789,27.211-9.679
	c28.99-16.95,46.898-49.144,52.398-82.276s-0.15-67.211-9.66-99.422c-7.154-24.24-16.607-48.957-13.279-74.01
	c2.799-21.089,14.586-41.634,10.16-62.438C536.535,22.06,426.932,90.594,399.939,123.813z"/>
<path fill="#FF495C" d="M172.572,704.7c-0.382,10.35,8.608,20.912,18.912,19.826c5.276-0.555,9.824-3.766,14.525-6.227
	c6.889-3.607,14.816-5.738,22.489-4.447c7.667,1.293,14.933,6.479,17.288,13.893c0.937,2.938,1.104,6.133,2.467,8.908
	c3.496,7.115,14.084,8.395,20.602,3.877c6.518-4.523,9.326-12.932,9.494-20.857c0.407-19.146-13.056-37.293-30.919-44.207
	C226.488,667.358,173.671,674.815,172.572,704.7z"/>
<path fill="#FF495C" d="M135.241,160.618c-0.64,8.33,0.087,17.127,4.483,24.229c4.396,7.103,13.239,11.932,21.262,9.612
	c8.899-2.58,13.448-12.186,17.019-20.734c5.104-12.217,10.97-25.021,22.011-32.328c9.566-6.329,21.532-7.52,32.317-11.433
	c10.782-3.913,21.624-12.781,21.004-24.238c-1.522-28.146-48.763-24.601-66.229-16.536
	C158.992,102.174,137.653,129.226,135.241,160.618z"/>
<g>
	<path fill="#1E1E1E" d="M305.467,374.283c-2.819-11.064-4.557-23.648-5.208-30.157h-1.519c-0.65,6.509-2.169,19.309-4.99,30.157
		l-7.593,29.723h26.901L305.467,374.283z"/>
	<path fill="#1E1E1E" d="M320.001,529.407h-21.479v32.762h21.479c9.763,0,15.62-6.076,15.62-16.707
		C335.621,535.481,329.764,529.407,320.001,529.407z"/>
	<path fill="#1E252B" d="M508.842,255.458H109.253c-11.213,0-20.304,9.09-20.304,20.304V675.35c0,11.213,9.091,20.305,20.304,20.305
		h399.589c11.214,0,20.305-9.092,20.305-20.305V275.761C529.146,264.548,520.056,255.458,508.842,255.458z M226.928,428.088
		c-8.245,23.865-27.12,37.316-57.71,37.316c-38.835,0-60.748-22.781-60.748-59.445v-41.656c0-36.666,21.913-59.446,60.748-59.446
		c30.591,0,49.032,13.668,57.277,37.316c2.169,6.075,0.651,9.33-5.208,11.282l-19.743,6.075c-6.292,1.952-8.461,0.868-10.631-5.641
		c-3.254-10.197-10.414-14.319-21.479-14.319c-15.403,0-22.346,7.593-22.346,24.516v42.088c0,16.924,6.726,24.518,22.346,24.518
		c10.848,0.217,18.007-4.34,21.262-14.318c2.17-6.727,4.773-8.027,10.848-6.076l19.96,6.511
		C227.579,418.76,229.098,422.014,226.928,428.088z M237.559,462.151c-6.075,0-7.376-3.037-5.424-8.68l45.778-137.983
		c1.953-6.075,4.556-7.377,10.414-7.377h23.214c5.641,0,8.678,1.519,10.414,6.943l45.994,138.417c1.953,5.643,0.217,8.68-5.857,8.68
		h-20.828c-10.195,0-13.232-1.953-14.97-8.461l-4.771-18.441h-44.259l-5.207,18.441c-1.735,6.508-4.556,8.461-14.319,8.461H237.559
		L237.559,462.151z M371.42,648.733h-21.262c-10.414,0-13.451-2.172-16.488-9.328l-13.669-31.678
		c-4.122-9.328-6.726-12.582-15.187-12.582h-6.292v44.691c0,6.51-2.17,8.896-8.681,8.896H268.58c-6.292,0-8.678-2.389-8.678-8.896
		V503.588c0-6.508,2.386-8.895,8.678-8.895h54.021c31.24,0,51.637,18.225,51.637,50.768c0,21.479-8.896,34.279-23.865,41.873
		c2.604,2.82,4.773,6.727,6.291,9.979l19.961,41.656C379.23,644.393,378.146,648.733,371.42,648.733z M389.256,442.668l9.764-11.281
		L385.352,429c-4.557-0.65-5.641-2.605-4.34-6.508l2.604-8.027c1.302-3.905,3.688-4.989,7.375-2.82l12.369,6.727l-2.604-15.188
		c-0.649-3.905,0.867-5.857,4.771-5.857h7.811c4.773,0,5.857,1.952,5.207,5.857l-2.387,14.97l12.584-6.509
		c3.904-2.169,5.641-1.301,6.939,3.038l2.82,7.81c1.086,3.688,0.218,5.641-4.338,6.51l-13.886,2.605l9.979,11.063
		c2.604,2.82,2.82,5.209-0.434,7.594l-6.508,4.773c-3.474,2.604-5.858,2.17-7.597-1.734l-6.072-12.367l-5.857,12.367
		c-1.735,3.904-4.556,4.555-7.593,2.387l-6.729-5.426C386.002,447.659,386.002,445.922,389.256,442.668z M514.392,592.542
		c0,36.666-21.911,59.445-61.182,59.445c-39.269,0-61.182-22.779-61.182-59.445v-41.656c0-36.666,21.913-59.441,61.182-59.441
		c39.271,0,61.182,22.775,61.182,59.441V592.542z"/>
	<path fill="#1E252B" d="M453.21,526.153c-14.753,0-22.563,8.025-22.563,23.432v44.258c0,15.404,7.811,23.436,22.563,23.436
		s22.563-8.027,22.563-23.436v-44.258C475.773,534.18,467.963,526.153,453.21,526.153z"/>
	<path fill="#FFFFFF" d="M221.504,416.807l-19.96-6.51c-6.074-1.952-8.678-0.649-10.848,6.076
		c-3.254,9.979-10.414,14.535-21.262,14.318c-15.621,0-22.346-7.596-22.346-24.52v-42.087c0-16.923,6.943-24.516,22.346-24.516
		c11.065,0,18.224,4.122,21.479,14.319c2.17,6.509,4.339,7.593,10.631,5.641l19.743-6.075c5.858-1.953,7.376-5.207,5.208-11.282
		c-8.245-23.648-26.686-37.316-57.277-37.316c-38.835,0-60.748,22.781-60.748,59.446v41.658c0,36.664,21.913,59.445,60.748,59.445
		c30.591,0,49.466-13.451,57.71-37.316C229.098,422.014,227.579,418.76,221.504,416.807z"/>
	<path fill="#FFFFFF" d="M272.055,453.69l5.207-18.441h44.259l4.771,18.441c1.735,6.508,4.772,8.461,14.97,8.461h20.828
		c6.074,0,7.813-3.037,5.857-8.68l-45.994-138.417c-1.736-5.424-4.773-6.943-10.414-6.943h-23.214
		c-5.858,0-8.461,1.302-10.414,7.377l-45.778,137.983c-1.952,5.643-0.65,8.68,5.424,8.68h20.177
		C267.499,462.151,270.319,460.198,272.055,453.69z M293.75,374.283c2.821-10.848,4.34-23.648,4.99-30.157h1.519
		c0.651,6.509,2.389,19.092,5.208,30.157l7.593,29.723h-26.901L293.75,374.283z"/>
	<path fill="#FFFFFF" d="M356.666,597.315c-1.518-3.256-3.688-7.16-6.291-9.98c14.97-7.594,23.865-20.395,23.865-41.873
		c0-32.543-20.396-50.768-51.638-50.768h-54.021c-6.292,0-8.678,2.387-8.678,8.895v136.25c0,6.508,2.386,8.896,8.678,8.896h21.262
		c6.509,0,8.681-2.389,8.681-8.896v-44.693h6.292c8.461,0,11.063,3.256,15.187,12.582l13.669,31.68
		c3.037,7.156,6.074,9.33,16.488,9.33h21.262c6.728,0,7.813-4.344,5.207-9.768L356.666,597.315z M320.001,562.168h-21.479v-32.762
		h21.479c9.763,0,15.62,6.072,15.62,16.055C335.621,556.092,329.764,562.168,320.001,562.168z"/>
	<path fill="#FFFFFF" d="M453.21,491.44c-39.269,0-61.182,22.779-61.182,59.445v41.654c0,36.666,21.913,59.447,61.182,59.447
		s61.182-22.781,61.182-59.447v-41.654C514.392,514.219,492.479,491.44,453.21,491.44z M475.773,593.842
		c0,15.404-7.813,23.434-22.563,23.434s-22.563-8.027-22.563-23.434v-44.258c0-15.404,7.811-23.432,22.563-23.432
		s22.563,8.023,22.563,23.432V593.842z"/>
	<path fill="#FFFFFF" d="M403.792,453.301l5.857-12.367l6.072,12.367c1.736,3.904,4.123,4.338,7.597,1.734l6.508-4.773
		c3.254-2.385,3.038-4.771,0.434-7.594l-9.979-11.063L434.167,429c4.556-0.869,5.424-2.82,4.338-6.51l-2.82-7.81
		c-1.301-4.339-3.035-5.207-6.939-3.038l-12.584,6.509l2.387-14.97c0.65-3.905-0.434-5.857-5.207-5.857h-7.811
		c-3.904,0-5.425,1.952-4.771,5.857l2.604,15.188l-12.369-6.727c-3.688-2.169-6.073-1.085-7.375,2.82l-2.604,8.027
		c-1.301,3.902-0.217,5.854,4.34,6.508l13.669,2.387l-9.765,11.281c-3.254,3.254-3.254,4.99,0.217,7.594l6.729,5.426
		C399.236,457.856,402.057,457.206,403.792,453.301z"/>
</g>
</svg>
