<?xml version="1.0" encoding="utf-8"?>
<!-- Generator: Adobe Illustrator 16.0.0, SVG Export Plug-In . SVG Version: 6.00 Build 0)  -->
<!DOCTYPE svg PUBLIC "-//W3C//DTD SVG 1.1//EN" "http://www.w3.org/Graphics/SVG/1.1/DTD/svg11.dtd">
<svg version="1.1" id="Capa_1" xmlns="http://www.w3.org/2000/svg" xmlns:xlink="http://www.w3.org/1999/xlink" x="0px" y="0px"
	 width="1280px" height="947.808px" viewBox="0 0 1280 947.808" enable-background="new 0 0 1280 947.808" xml:space="preserve">
<g>
	<path fill="none" stroke="#6CD0CD" stroke-miterlimit="10" d="M1611.75,704.572c-13.193-13.044-20.757-31.264-35.736-41.468
		c-16.034-14.827-42.318-23.425-61.645-29.231c-59.034-22.042-122.039-18.852-177.983,4.619
		c-100.854,41.992-199.021,59.532-305.177,29.271c-137.343-41.145-272.956-4.354-392.152,68.098
		c-42.299,25.709-89.773,45.787-105.682,97.582c-14.402,45.616,9.02,92.813,32.391,131.267
		c38.951,64.086,97.633,114.429,152.975,165.043c38.523,34.509,86.301,84.231,138.599,98.08
		c63.378,17.647,121.688-25.037,172.956-56.196c96.13-58.432,193.542-117.639,290.955-176.85
		c52.55-31.938,106.384-64.66,158.935-96.601c21.79-13.244,46.52-24.542,64.688-40.854c24.304-23.549,22.972-40.179,26.666-68.753
		c2.188-22.393,45.688-66.33,38.902-83.27"/>
</g>
<g>
	<path fill="none" stroke="#6CD0CD" stroke-miterlimit="10" d="M1430.196,342.156c-18.253-3.323-34.779-14.096-52.904-14.066
		c-21.604-3.192-48.155,4.543-67.387,10.656c-61.174,15.117-111.388,53.308-144.327,104.254
		c-59.563,91.582-130.706,161.46-235.42,196.386c-136.603,43.539-227.796,150.441-285.312,277.521
		c-20.411,45.094-48.273,88.461-32.177,140.197c13.853,45.787,59.823,71.533,100.817,90.088
		c68.322,30.926,145.177,39.369,219.427,49.924c51.278,6.748,118.78,20.834,169.771,2.754c62.28-21.197,86.33-89.342,111.07-143.996
		c46.385-102.488,93.392-206.34,140.396-310.193c25.359-56.021,51.336-113.416,76.694-169.441
		c10.515-23.23,24.554-46.512,30.348-70.23c6.775-33.157-3.709-46.134-16.785-71.808c-10.83-19.721,0.286-80.542-14.875-90.697"/>
</g>
<path fill="#FFB700" d="M-69.369,125.928c-2.387,31.431,9.455,64.572,34.086,84.25c6.343,5.067,13.569,9.262,21.506,10.967
	c9.321,2.004,19.373,0.378,27.586-4.464c18.412-10.859,24.465-34.515,25.917-55.842c1.452-21.325,0.279-43.895,10.47-62.684
	c5.06-9.329,12.764-17.167,21.883-22.585c14.233-8.448,32.97-12.222,40.753-26.826c7.726-14.496,0.022-33.106-12.313-43.951
	C80.915-12.451,51.388-15.517,26.709-6.99C-2.114,2.972-20.057,24.375-36.283,48.583C-52.653,72.999-67.067,95.606-69.369,125.928z"
	/>
<path fill="none" stroke="#FFB700" stroke-miterlimit="10" d="M-24.249,47.093c-14.792,27.835-17.236,62.943-2.564,90.848
	c3.778,7.186,8.716,13.927,15.303,18.672c7.734,5.574,17.595,8.116,27.06,6.974c21.222-2.563,36.254-21.806,46.138-40.76
	c9.882-18.952,17.859-40.099,34.73-53.223c8.376-6.517,18.577-10.607,29.104-11.913c16.426-2.03,35.104,2.027,48.09-8.229
	c12.892-10.181,13.298-30.318,6.348-45.2c-11.042-23.659-36.861-38.31-62.888-40.396C86.673-38.568,61.652-26.159,37.08-10.49
	C12.292,5.311-9.979,20.239-24.249,47.093z"/>
<g>
	<path fill="#6CD0CD" d="M1648.296,372.684c-17.703-5.549-32.775-18.278-50.765-20.485c-21.045-5.833-48.349-1.431-68.188,2.262
		c-62.571,7.457-117.111,39.161-156.085,85.655c-70.405,83.536-149.623,144.105-257.846,165.847
		C974.483,632.321,870.8,727.158,798.047,846.172c-25.818,42.232-58.816,81.831-49.225,135.157
		c8.1,47.146,50.544,78.365,88.936,101.836c63.985,39.117,139.211,56.978,211.593,76.609
		c50.054,13.022,115.303,35.327,168.134,23.674c64.42-13.353,96.692-78.01,127.984-129.195
		c58.673-95.983,118.131-193.243,177.587-290.506c32.076-52.467,64.934-106.218,97.009-158.686
		c13.301-21.757,30.104-43.13,38.78-65.953c10.813-32.067,2.01-46.238-7.8-73.329c-8.314-20.907,10.219-79.892-3.573-91.84"/>
</g>
</svg>
