<?xml version="1.0" encoding="utf-8"?>
<!-- Generator: Adobe Illustrator 16.0.0, SVG Export Plug-In . SVG Version: 6.00 Build 0)  -->
<!DOCTYPE svg PUBLIC "-//W3C//DTD SVG 1.1//EN" "http://www.w3.org/Graphics/SVG/1.1/DTD/svg11.dtd">
<svg version="1.1" id="Capa_1" xmlns="http://www.w3.org/2000/svg" xmlns:xlink="http://www.w3.org/1999/xlink" x="0px" y="0px"
	 width="1280px" height="618.5px" viewBox="0 0 1280 618.5" enable-background="new 0 0 1280 618.5" xml:space="preserve">
<g>
	<path fill="#6CD0CD" d="M474.604-57.886c4.5,17.999,1.5,37.498,9,53.997c6,20.999,23.997,41.998,37.496,56.997
		c38.998,49.498,94.495,79.496,154.492,88.496c107.995,16.5,200.99,52.498,275.986,133.494
		c95.995,106.494,230.989,145.492,370.479,145.492c49.498,0,100.495,7.5,140.993-28.498c35.998-31.499,40.498-83.996,40.498-128.994
		c0-74.996-23.999-148.493-44.998-220.489c-14.999-49.498-29.998-116.804-67.496-155.802C1346.062-161.19,1274.063-155,1214.067-155
		c-112.494,0-226.488,0-340.483,0c-61.496,0-124.493,0-185.99,0c-25.499,0-52.498-3.19-76.496,1.31
		c-32.999,7.5-40.498,22.403-58.497,44.902c-13.5,17.999-73.495,32.951-76.495,50.95"/>
</g>
<path fill="#FFB700" d="M-5.992,8.032C-29.905,28.57-44.966,60.377-41.463,91.708c0.902,8.068,3.046,16.144,7.452,22.962
	c5.174,8.008,13.431,13.966,22.663,16.35c20.697,5.341,41.705-7.106,57.812-21.16C62.57,95.807,77.699,79.019,98.192,72.939
	c10.174-3.018,21.164-3.113,31.444-0.496c16.038,4.091,31.955,14.671,47.785,9.848c15.713-4.787,23.425-23.394,22.372-39.784
	c-1.67-26.057-20.38-49.103-43.861-60.524c-27.424-13.337-55.247-10.89-83.838-5.246C43.254-17.574,17.076-11.78-5.992,8.032z"/>
<path fill="#FF495C" d="M274.331,341.273c-6.695,9.713-8.421,23.021-3.201,33.604c5.221,10.583,17.723,17.452,29.256,14.976
	c6.035-1.294,11.361-4.835,16-8.896c20.49-17.925,29.507-47.934,22.291-74.177c-4.381-15.937-25.596-37.31-39.852-17.839
	c-4.361,5.959-2.119,16.583-4.264,23.39C290.708,324.57,281.347,331.088,274.331,341.273z"/>
<path fill="#6CD0CD" d="M139.097,453.135c1.135,8.359-2.502,17.203-9.193,22.347c-5.534,4.26-12.645,5.918-19.594,6.61
	c-9.438,0.944-19.473,0.188-27.524-4.829c-4.945-3.088-8.854-7.606-12.039-12.486c-9.398-14.39-14.979-61.965,14.598-56.15
	c10.297,2.021,18.443,17.01,27.658,21.844C124.56,436.538,136.919,437.058,139.097,453.135z"/>
<path fill="#FFB700" d="M411.136,74.893c-9.845-6.502-23.185-7.964-33.663-2.535c-10.478,5.429-17.098,18.064-14.393,29.546
	c1.414,6.009,5.059,11.264,9.209,15.821c18.328,20.131,48.508,28.551,74.604,20.818c15.847-4.695,36.797-26.329,17.047-40.197
	c-6.044-4.242-16.62-1.79-23.469-3.8C428.16,90.936,421.458,81.706,411.136,74.893z"/>
</svg>
