<?xml version="1.0" encoding="utf-8"?>
<!-- Generator: Adobe Illustrator 16.0.0, SVG Export Plug-In . SVG Version: 6.00 Build 0)  -->
<!DOCTYPE svg PUBLIC "-//W3C//DTD SVG 1.1//EN" "http://www.w3.org/Graphics/SVG/1.1/DTD/svg11.dtd">
<svg version="1.1" id="Capa_1" xmlns="http://www.w3.org/2000/svg" xmlns:xlink="http://www.w3.org/1999/xlink" x="0px" y="0px"
	 width="1280px" height="440px" viewBox="0 0 1280 440" enable-background="new 0 0 1280 440" xml:space="preserve">
<g>
	<path fill="#6CD0CD" d="M474.604-77.886c4.5,17.999,1.5,37.498,9,53.997c6,20.999,23.999,41.998,37.498,56.997
		c38.998,49.498,94.495,79.496,154.492,88.496c107.995,16.5,200.99,52.498,275.986,133.494
		c95.995,106.494,230.989,145.492,370.481,145.492c49.498,0,100.495,7.5,140.993-28.498c35.998-31.499,40.498-83.996,40.498-128.994
		c0-74.996-23.999-148.493-44.998-220.489c-14.999-49.498-29.998-116.804-67.496-155.802C1346.061-181.19,1274.064-175,1214.067-175
		c-112.494,0-226.488,0-340.483,0c-61.496,0-124.493,0-185.99,0c-25.499,0-52.498-3.19-76.496,1.31
		c-32.999,7.5-40.498,22.403-58.497,44.902c-13.5,17.999-73.497,32.951-76.497,50.95"/>
</g>
<path fill="#FFB700" d="M-5.992-11.968C-29.905,8.57-44.966,40.377-41.463,71.708c0.902,8.068,3.046,16.144,7.452,22.962
	c5.174,8.008,13.431,13.966,22.663,16.35c20.697,5.341,41.705-7.106,57.812-21.16c16.106-14.053,31.235-30.841,51.728-36.921
	c10.174-3.018,21.164-3.113,31.444-0.496c16.038,4.091,31.955,14.671,47.785,9.848c15.713-4.787,23.425-23.394,22.372-39.784
	c-1.67-26.057-20.38-49.103-43.861-60.524c-27.424-13.337-55.247-10.89-83.838-5.246C43.254-37.574,17.076-31.78-5.992-11.968z"/>
</svg>
